<svg width="141" height="101" viewBox="0 0 141 101" fill="none" xmlns="http://www.w3.org/2000/svg">
<rect x="0.5" y="0.5" width="140" height="100" rx="12" fill="white"/>
<path fill-rule="evenodd" clip-rule="evenodd" d="M134.391 76.1159C134.391 69.1451 128.844 64.6144 122.089 64.6144C115.334 64.6144 109.787 69.1451 109.787 76.1159C109.787 83.235 115.305 87.4989 122.089 87.4989C128.874 87.4989 134.391 83.235 134.391 76.1159ZM126.414 76.2411C126.414 78.8715 124.636 80.677 122.089 80.677C119.543 80.677 117.764 78.8715 117.764 76.2411C117.764 73.7934 119.42 71.7436 122.089 71.7436C124.758 71.7436 126.414 73.7934 126.414 76.2411Z" fill="#292827"/>
<path fill-rule="evenodd" clip-rule="evenodd" d="M34.2337 71.1079C34.2337 65.9967 30.3835 64.9674 26.0771 64.9674H15.2988V87.1461H27.1244C31.0187 87.1461 35.266 85.5869 35.266 81.0211C35.266 78.3522 33.7321 76.5866 31.3139 75.7333V75.5567C33.2604 74.9388 34.2337 73.0305 34.2337 71.1079ZM27.5628 71.5221C27.7155 73.9075 26.1131 73.7194 24.8256 73.7194H21.4763V69.8675H24.6315C25.9204 69.8675 27.4495 69.7423 27.5628 71.5221ZM28.4023 80.0081C28.4648 81.9185 26.4083 81.9509 25.0279 81.9509H21.589V77.6565H24.9044C26.2543 77.6565 28.3141 77.2985 28.4023 80.0081Z" fill="#292827"/>
<path fill-rule="evenodd" clip-rule="evenodd" d="M107.628 65.5267C105.916 64.9379 102.677 64.6144 100.848 64.6144C94.3275 64.6144 88.6787 69.7913 88.6787 76.2628C88.6787 82.5873 94.1802 87.4989 100.523 87.4989C101.968 87.4989 106.329 87.2343 107.628 86.6172L106.784 78.3213C105.486 79.5868 103.738 80.3812 101.88 80.3812C99.4604 80.3812 96.8203 78.4979 96.8203 76.0564C96.8203 73.6445 99.343 71.7328 101.763 71.7328C103.591 71.7328 105.486 72.7621 106.784 73.968L107.628 65.5267Z" fill="#292827"/>
<path fill-rule="evenodd" clip-rule="evenodd" d="M64.3906 87.1468H72.1786V79.4397H77.6808V87.1468H85.4688V64.9674H77.6808V73.2551H72.1786V64.9674H64.3906V87.1468Z" fill="#292827"/>
<path fill-rule="evenodd" clip-rule="evenodd" d="M61.148 87.1468L53.4829 64.9674H44.5445L37.085 87.1468H45.3698L46.0186 84.3824H52.1255L52.8632 87.1468H61.148ZM51.5988 79.3124H46.6525L48.9621 71.3292L49.3931 71.3272L51.5988 79.3124Z" fill="#292827"/>
<mask id="mask0_1113_20970" style="mask-type:luminance" maskUnits="userSpaceOnUse" x="10" y="14" width="113" height="35">
<path d="M10.8535 14.2235H122.843V48.9783H10.8535V14.2235Z" fill="white"/>
</mask>
<g mask="url(#mask0_1113_20970)">
<path fill-rule="evenodd" clip-rule="evenodd" d="M122.841 34.9564C122.889 33.8953 122.264 33.3844 121.823 32.6765C115.532 25.4742 104.282 22.8053 94.049 21.0438C91.8609 20.0788 90.9033 18.1278 89.5642 16.3413C89.0464 15.7431 88.9874 14.6008 88.2075 14.2245C85.9787 15.9156 82.4509 16.2574 79.6112 15.5022C78.6013 15.9921 77.7536 16.7033 76.6345 16.8684C75.2526 17.2041 73.7609 16.7994 72.4035 16.6343C70.1278 17.8632 67.0174 17.8768 64.5592 16.9632L63.271 18.0006C61.5912 18.9263 59.4724 18.4472 57.5734 18.6753C57.3019 19.9177 59.5429 22.3586 58.2711 23.3446C54.7446 24.1675 51.1075 24.8875 47.5973 25.7679C41.6702 26.7093 36.5841 29.5488 30.3279 29.6807C23.8335 27.7994 17.8983 24.3489 10.8535 24.0443C11.5906 26.4886 13.2188 28.6 14.6678 30.6579C15.7958 32.1744 17.652 33.473 18.4834 34.9895C16.7805 38.0909 14.8117 41.0786 13.4387 44.291C13.269 44.9907 12.4389 45.8678 13.0572 46.5675C16.5247 45.9002 19.874 44.9698 23.1636 43.929C28.1405 41.7905 33.0997 38.6296 39.1367 40.1279C39.0261 40.9447 38.1146 42.2345 38.3514 43.1541C38.4023 44.0244 39.3091 44.3458 39.8513 44.7241L50.1023 47.031C54.4168 47.4154 54.4901 44.9061 56.609 43.816C66.2321 45.1924 76.025 46.3509 86.1993 46.1574C87.5899 46.3699 87.5546 48.2106 88.6731 48.754C91.9722 49.8286 94.4725 46.7854 96.8215 45.413C105.256 44.6774 113.074 42.3691 120.272 38.656C122.625 37.7086 122.758 36.1305 122.841 34.9564ZM27.698 38.7629C24.4504 40.5745 21.752 41.842 17.9547 42.382L18.1013 42.3103C18.9591 39.8903 20.5229 37.6653 21.7791 35.4179C20.962 34.011 19.7457 32.4647 18.7433 31.1066L15.9077 28.0464C15.8195 27.8292 15.9973 27.6106 16.2308 27.6106C20.3586 28.5188 23.4955 29.5345 27.1761 31.4151C27.5405 32.2969 26.6338 33.0467 26.5028 33.9318C26.0494 35.6006 26.6474 37.3134 27.698 38.5389V38.7629ZM35.0442 34.3907C34.6397 34.978 33.7248 35.0782 33.2891 35.6656C32.5344 36.3531 32.328 37.3303 31.8238 38.21C30.8254 38.6086 30.2146 37.5354 29.6112 37.0955C28.9095 36.027 28.3909 34.4671 29.1009 33.2409C29.5434 32.4079 30.3897 31.6222 31.2978 31.5207C32.6178 31.1296 32.7631 32.6393 33.5185 33.2226C33.9223 33.7613 34.5867 33.9576 35.0442 34.3907ZM38.4627 30.0752C38.1655 31.005 37.6619 31.8888 37.1203 32.6671C36.1518 32.5757 35.3957 31.9423 35.0442 31.2047L35.0903 30.8183C36.2583 30.5679 37.349 30.3216 38.4627 30.0752ZM38.4498 38.2371L34.772 38.1485C34.4815 37.8074 34.7259 37.2241 35.0163 36.8336C35.672 36.0926 36.5346 35.4111 37.4881 35.4558C37.7399 35.943 37.8845 36.4763 38.1438 36.9669C38.2517 37.4521 39.2507 37.7925 38.4498 38.2371ZM90.021 45.5186C90.2063 42.4111 93.9282 42.2162 96.1666 41.3256L96.6403 41.3216C96.5521 42.2981 95.7403 42.9024 95.1153 43.5994C93.9825 44.7106 92.7527 45.7798 91.2155 46.3036C90.6447 46.3915 90.1642 45.9781 90.021 45.5186ZM88.798 37.3303C89.3559 36.5487 90.9929 35.1242 91.9464 34.9198C93.4124 34.7716 93.9527 34.9029 95.1573 35.2399L95.6508 38.9693V39.1913C93.7823 40.1245 91.6831 40.567 89.9273 41.6566L89.4244 41.555C88.7071 40.2916 88.0508 38.8022 88.798 37.3303ZM86.3486 37.2132C85.1426 36.9656 83.8374 36.4398 83.2809 35.2135C82.8153 33.8527 82.6558 32.2888 83.6094 31.0612C84.5555 29.9372 86.181 29.5894 87.6306 29.7741C88.1872 30.3134 88.4471 31.091 88.9507 31.6784L90.5144 33.1888C88.7593 33.7803 87.051 35.4991 86.3486 37.2132ZM87.613 26.4372C86.2807 26.2789 86.0608 25.7436 85.0978 24.7826C84.7224 24.3563 84.1876 23.9821 84.6166 23.1822L88.7695 23.44L89.3247 23.7689C88.536 24.5857 87.8329 25.4059 87.613 26.4372ZM83.756 42.0829C84.206 41.2742 84.9179 40.6672 85.8755 40.5068C86.9961 40.6631 86.6642 42.0254 87.3938 42.5647C87.6646 42.834 88.462 43.1 87.9618 43.707C87.3938 45.4969 85.1405 44.4582 83.5999 44.5238C82.7515 43.8755 83.5361 42.8469 83.756 42.0829ZM77.495 41.0286C76.9826 39.4701 77.4801 37.8047 78.6081 36.7287C79.1273 36.2306 79.8834 35.8436 80.6333 35.8936L81.4824 37.4975C82.138 38.1769 82.8513 38.7643 83.7058 39.2014C82.6226 40.2774 81.3602 41.4096 81.0751 43.1183C80.9041 43.5554 80.3761 43.2665 80.0836 43.1758C79.0065 42.6831 77.8799 42.2054 77.495 41.0286ZM78.3997 34.0455C77.2405 34.7317 75.4427 36.7219 75.3585 38.2276C74.4043 38.7778 73.2797 37.802 72.5759 37.2674C71.4696 36.2428 70.647 34.0767 71.2497 32.3612C71.6535 30.8927 73.4046 29.3579 74.823 29.1576C75.5716 29.3058 74.9309 30.3317 75.9721 31.7616C76.7356 32.5859 77.5446 33.2186 78.4445 33.8026L78.3997 34.0455ZM74.1823 41.1091C74.4952 40.8513 74.8855 40.4804 75.3585 40.5758C75.9917 41.553 76.3175 42.5708 76.9426 43.393L77.3919 43.9905L72.5759 43.5635C72.2019 42.7413 73.693 41.6775 74.1823 41.1091ZM67.3242 36.5386C67.8814 36.0642 69.1709 34.817 69.4301 36.2679C69.9948 38.298 71.4594 39.2319 73.1697 40.1658C71.9175 41.0522 70.9558 42.1512 70.0097 43.4573C68.3999 43.3558 66.9353 42.4835 66.2708 40.971C65.8134 39.3557 66.0116 37.6917 67.3242 36.5386ZM61.2322 41.7784C61.4765 40.9934 62.4376 40.9392 63.1393 40.6929C64.2001 40.4466 64.604 41.4705 65.0621 42.0545L65.0241 42.4984C63.7569 42.449 62.3914 42.2142 61.2322 41.7784ZM56.632 36.2171C57.1736 35.7766 57.6779 35.1391 58.5317 35.1892C59.0434 35.7725 58.9973 36.6042 59.5009 37.1848C60.0051 38.0673 61.0123 38.5525 61.7677 39.1344C61.4616 39.7211 60.7069 39.6805 60.3635 40.2104C59.661 40.5569 59.5701 41.6823 58.6545 41.6863C57.6087 41.5889 56.4413 41.5422 56.0368 40.521C55.3194 39.1602 55.6629 37.3973 56.632 36.2171ZM51.4672 40.498C51.6647 39.8619 52.4431 39.8179 53.0119 39.6183C53.8711 39.4193 54.1982 40.249 54.5695 40.7213L54.5383 41.082C53.5121 41.0407 52.4058 40.8506 51.4672 40.498ZM41.1239 41.8873C41.2732 40.0954 45.327 42.1018 47.3794 42.3238L52.9216 43.3368C52.963 44.2666 51.7855 45.3406 50.7695 45.1802L47.9977 44.7194C45.7044 44.0325 43.0493 43.8058 40.8517 42.9308C40.5708 42.7955 41.0228 42.2318 41.1239 41.8873ZM48.9825 40.2551C47.5172 39.9127 46.2731 39.7773 45.0223 39.0458C44.9076 37.9718 45.2585 36.9405 46.1584 36.4086C46.6776 35.9694 47.0971 35.7143 47.6998 35.9085L48.6235 37.7147C49.2261 38.4422 49.8288 38.7345 50.5306 39.1737C50.4464 39.8538 49.5383 39.9587 48.9825 40.2551ZM45.3752 34.3291C44.0246 35.0159 42.9896 36.5643 42.6924 38.1343C42.3489 38.6695 41.7537 38.2615 41.3492 38.2615C40.1283 37.6281 39.6871 35.7224 39.7333 34.1051C39.5724 32.5459 39.4536 31.5166 40.3739 30.3162C41.4761 28.8788 43.1267 28.6873 43.3079 30.8616L43.3704 31.0768C43.7145 32.2976 44.6198 33.3512 45.3752 34.3291ZM50.9582 28.4924C50.5279 28.759 49.7935 29.5663 49.351 29.9859C48.6669 30.6349 48.2278 30.9509 47.7459 32.707C47.5878 33.6219 46.6166 32.0228 46.06 31.3894C45.663 30.6098 45.2972 29.59 45.6019 28.6595C46.7313 27.9842 46.7991 28.0485 48.5461 27.6201C50.6141 27.1133 50.5564 27.8861 50.9582 28.4924ZM53.8806 26.624C53.8073 27.1261 53.7774 27.57 53.601 27.9957L53.3132 28.0735C52.5293 28.2427 52.4777 27.7866 52.1615 27.3142C52.0223 27.1078 52.3278 27.0435 52.4649 26.9556C52.9766 26.8026 53.3424 26.6314 53.8806 26.624ZM56.0443 33.5035L56.197 33.7031C54.7466 34.6864 53.7021 36.4425 52.9013 38.0131C51.588 37.626 50.2917 36.7003 50.0317 35.1905C49.7718 34.0178 50.177 32.7435 50.8787 31.8205C51.6267 30.9773 52.2524 30.488 53.2671 30.438C53.3736 31.853 54.7778 33.0217 56.0443 33.5035ZM60.1477 27.3596C60.7503 27.8942 61.3082 28.3354 61.9177 28.7265C60.7659 29.4581 59.4615 30.2952 59.0108 31.7102C57.7064 31.9112 56.3863 30.9861 55.6384 29.9169C55.0201 28.7482 55.4776 27.2757 56.1264 26.2518C56.9279 25.9513 57.7749 25.9033 58.683 25.8498C59.5986 25.8464 59.5457 26.9684 60.1477 27.3596ZM61.1684 25.7896C61.0232 25.4012 61.4921 25.3687 61.7344 25.2469C62.61 25.0831 63.6307 24.8557 64.5232 24.9383C64.3142 25.7571 63.9137 26.5489 63.5452 27.2222C62.4233 27.4557 61.6842 26.6585 61.1684 25.7896ZM65.2263 21.7861C64.6657 22.3708 64.4967 22.1042 62.8373 22.542C62.143 22.7247 61.3462 22.8987 60.6974 22.542C60.5827 22.178 59.8972 20.1898 60.1565 19.8859C61.8743 20.0876 63.2656 19.821 64.6657 19.4474C65.1693 19.4474 65.1272 21.2366 65.2263 21.7861ZM66.9285 33.7491C65.7231 34.635 64.2734 36.0073 63.8309 37.578C63.1665 37.7742 62.5109 37.2403 61.9157 36.996C61.0001 36.2645 60.6417 35.0924 60.542 34.0712C60.4809 32.6048 61.4419 31.2324 62.7925 30.6356C64.3494 29.6083 64.4187 31.903 65.2114 32.3923C65.6084 32.9811 66.5165 33.1699 66.9285 33.7491ZM70.2995 24.4686C70.981 24.9417 70.793 26.0467 71.3658 26.6727C71.756 27.1945 72.111 27.5612 72.6336 27.9199L72.5107 28.1946C71.0319 29.0399 69.5605 30.0996 68.799 31.8868C67.8427 32.1514 66.9292 31.4185 66.3122 30.6877C65.2616 29.3782 65.5378 27.591 66.0659 26.065C66.6679 24.1181 68.727 24.2656 70.2995 24.4686ZM72.0411 21.2488L67.468 21.73C67.1253 21.3686 66.9583 19.8365 67.0574 19.3493C69.1519 19.394 70.6735 19.2295 72.1598 18.9108C72.924 18.7233 72.6132 20.0416 72.8718 20.518C73.0632 21.2461 72.4537 21.1778 72.0411 21.2488ZM73.2464 24.0829C74.3527 23.685 75.7033 23.6816 76.9087 23.6275L77.0166 23.7216C76.2218 24.6588 75.3592 25.4905 74.9717 26.6132C74.4674 26.8101 74.1552 26.176 73.8491 25.8884C73.5064 25.3978 72.8881 24.765 73.2464 24.0829ZM80.2132 20.1505C80.2818 20.9084 79.5881 20.5904 79.206 20.6608C77.6729 20.4158 74.9276 21.7435 74.7653 19.4711C74.6506 19.1551 74.8108 18.837 75.0701 18.837C76.8571 18.5941 77.8704 18.5102 79.206 17.9952L80.2132 20.1505ZM82.476 24.493C83.0264 25.7118 83.9874 26.201 84.7896 27.026L85.0211 27.5321C83.0529 27.9781 81.1437 29.8472 80.541 31.5045C79.9383 31.7515 79.4327 31.246 78.8137 30.9062C77.1516 29.9866 77.1516 28.0749 77.3953 26.3675C77.6396 25.4377 78.4398 24.5546 79.4022 24.3076C80.3557 24.0119 81.6609 24.0044 82.476 24.493ZM89.4197 20.4097L83.3773 20.3055C82.6294 19.8007 82.0565 18.5907 81.95 17.4491C83.7892 17.1236 85.4799 17.0457 87.3442 16.459L87.7189 16.3528C88.2693 17.6886 89.3511 18.8167 89.4197 20.4097ZM97.9413 24.4517C96.6437 26.5083 95.23 29.7389 94.7956 32.0858C93.6364 32.6244 92.974 32.1852 92.0116 31.5518C90.4065 30.5916 89.8805 29.9121 89.3742 28.2129C89.1027 27.3007 90.4065 25.4194 91.0553 24.7319C92.7032 22.8702 95.2707 23.2905 97.7961 24.1628L97.9413 24.4517ZM108.226 29.6922C108.226 30.6992 107.406 31.516 106.397 31.516C105.387 31.516 104.669 30.6971 104.669 29.6902C104.669 28.6826 105.488 27.8664 106.497 27.8664C107.508 27.8664 108.226 28.6846 108.226 29.6922ZM120.093 36.5203C116.315 38.7778 111.971 40.3119 107.62 41.2485C104.409 41.7188 101.038 41.0137 99.237 38.6255C97.0122 36.4864 96.9715 32.7239 97.868 29.745C98.3961 27.9916 99.2526 26.2721 100.615 24.8896C102.607 24.9857 104.4 25.5879 106.139 26.2538L106.344 26.5029C105.175 26.7444 104.082 27.0172 103.555 28.1994C102.877 29.3193 103.118 30.618 103.749 31.6879C104.387 32.4539 105.683 33.1374 106.958 32.9885C108.21 32.7219 109.326 31.8421 109.628 30.4759C109.763 29.5048 109.558 28.4836 108.982 27.7196C109.079 27.3109 109.453 27.5606 109.709 27.5606C113.718 29.184 117.032 30.9597 119.877 34.0103C121.377 35.4538 120.093 36.5203 120.093 36.5203Z" fill="#E05B00"/>
</g>
<mask id="mask1_1113_20970" style="mask-type:luminance" maskUnits="userSpaceOnUse" x="11" y="13" width="125" height="43">
<path d="M11.3057 13.501H135.147V55.6184H11.3057V13.501Z" fill="white"/>
</mask>
<g mask="url(#mask1_1113_20970)">
<path fill-rule="evenodd" clip-rule="evenodd" d="M88.4569 55.6185C88.2004 55.6185 87.9377 55.5962 87.6649 55.5732C87.236 55.5366 86.7908 55.4994 86.3768 55.5562L86.3292 55.5623L86.2817 55.561C78.9532 55.3539 71.455 54.7442 64.2045 54.1548C52.2758 53.1843 39.9406 52.1808 28.5582 53.0328C23.8115 53.2798 22.3645 53.4929 16.2752 54.3936L13.5191 54.7936C12.5472 54.8024 11.7864 54.3882 11.4389 53.6939L11.4206 53.654C11.2651 53.273 11.2685 52.8778 11.4321 52.5103C11.6466 52.0258 12.1542 51.6008 12.7895 51.3694L12.9042 51.341C23.768 49.7514 28.7408 49.6018 36.2695 49.3751L37.4776 49.3386C46.4167 49.2276 55.4141 49.9652 64.9389 50.7461C79.0482 51.9026 93.6381 53.0998 107.825 51.2679C112.625 50.7353 128.462 47.9905 131.243 34.9468C131.882 29.0905 128.95 23.8264 125.861 21.8409C123.114 19.9935 121.484 19.3499 119.545 19.0406C121.153 20.8333 122.811 22.6888 123.87 25.0086L123.89 25.058C123.899 25.0837 123.911 25.106 123.922 25.1284C123.991 25.2718 124.119 25.5371 124.017 25.9113L123.828 26.6104L123.184 26.2747C122.007 25.6623 120.951 24.9233 119.929 24.2101C119.032 23.5834 118.104 22.9345 117.069 22.3491C111.863 19.2308 106.296 17.1668 99.5346 15.027L99.1837 14.9161L98.9882 13.501L100.921 13.6323C107.68 14.0898 114.669 14.5635 121.098 15.7626L121.15 15.7741C127.33 17.5234 134.316 23.0387 135.057 31.0165C135.997 39.761 129.5 47.6454 122.909 50.6236C113.583 55.5671 102.068 55.5847 90.9328 55.6016C90.2066 55.6036 89.4818 55.6043 88.7576 55.607C88.6585 55.6144 88.5581 55.6185 88.4569 55.6185Z" fill="#E05B00"/>
</g>
<path fill-rule="evenodd" clip-rule="evenodd" d="M131.875 55.3203C130.259 55.3203 129.002 54.0264 129.002 52.4551C129.002 50.8838 130.275 49.5743 131.89 49.5743C133.506 49.5743 134.765 50.8675 134.765 52.4395C134.765 54.0109 133.492 55.3203 131.875 55.3203ZM131.89 49.7963C130.378 49.7963 129.24 50.9947 129.24 52.4551C129.24 53.9154 130.37 55.0983 131.875 55.0983C133.388 55.0983 134.526 53.8999 134.526 52.4395C134.526 50.9792 133.395 49.7963 131.89 49.7963ZM132.361 52.5979L133.331 53.82H132.885L131.962 52.6534H131.119V53.82H130.777V50.9156H132.082C132.703 50.9156 133.157 51.2411 133.157 51.7567C133.157 52.2331 132.83 52.5106 132.361 52.5979ZM132.066 51.2411H131.119V52.336H132.027C132.464 52.336 132.798 52.1458 132.798 51.773C132.798 51.4393 132.52 51.2411 132.066 51.2411Z" fill="#FEFEFE"/>
</svg>
