<svg width="141" height="101" viewBox="0 0 141 101" fill="none" xmlns="http://www.w3.org/2000/svg">
<rect x="0.5" y="0.5" width="140" height="100" rx="12" fill="white"/>
<g clip-path="url(#clip0_1113_20980)">
<path fill-rule="evenodd" clip-rule="evenodd" d="M63.5886 51.8569V49.3471C63.5886 48.0258 62.4769 47.0821 61.57 47.0821C60.7398 47.0821 60.135 47.554 60.135 48.876V52.6121C60.135 53.6308 60.6278 54.2161 61.6265 54.2161C62.6095 54.2161 63.5886 53.2346 63.5886 51.8569ZM58.0796 52.7256V48.7996C58.0796 46.9137 59.4384 45.5931 61.1176 45.5931C62.0613 45.5931 63.0055 46.1206 63.5508 46.9323H63.5695V42.1582H65.646V55.6123H63.7581L63.6643 54.0462H63.6083C62.9662 55.2354 61.9286 55.8387 60.8336 55.8387C58.9295 55.8387 58.0796 54.3853 58.0796 52.7256Z" fill="#41444D"/>
<path fill-rule="evenodd" clip-rule="evenodd" d="M84.1396 52.5735V49.1971C84.1396 47.1577 85.2332 45.9514 87.0833 45.9514C89.0651 45.9514 89.8943 47.082 89.8943 48.3847V48.8188H89.3662V48.3469C89.3662 47.6488 88.8744 46.441 87.045 46.441C85.272 46.441 84.7066 47.7809 84.7066 49.2149V52.5927C84.7066 54.2339 85.329 55.3473 87.1383 55.3473C89.0267 55.3473 89.3662 54.2339 89.3662 53.4044V52.8754H89.8943V53.3473C89.8943 54.7064 89.2149 55.82 87.1206 55.82C85.1207 55.82 84.1396 54.6493 84.1396 52.5735Z" fill="#41444D"/>
<path fill-rule="evenodd" clip-rule="evenodd" d="M97.0266 52.4043V49.1979C97.0266 47.7067 96.3477 46.4417 94.5359 46.4417C92.7226 46.4417 92.082 47.7623 92.082 49.2914V52.4236C92.082 54.216 92.7993 55.3104 94.6111 55.3104C96.4612 55.3104 97.0266 54.0083 97.0266 52.4043ZM91.5181 52.5178V49.2914C91.5181 47.2163 92.705 45.9514 94.5546 45.9514C96.4985 45.9514 97.6117 47.1963 97.6117 49.2535V52.4414C97.6117 54.65 96.4612 55.8207 94.5732 55.8207C92.5925 55.8207 91.5181 54.5751 91.5181 52.5178Z" fill="#41444D"/>
<path fill-rule="evenodd" clip-rule="evenodd" d="M99.7422 46.1769H100.253V47.9129H100.272C100.837 46.5924 102.046 45.9514 103.272 45.9514C104.783 45.9514 105.574 46.9886 105.574 48.1771V55.6122H104.989V48.4983C104.989 46.9507 104.195 46.4596 103.064 46.4596C101.705 46.4596 100.31 47.8187 100.31 49.4227V55.6122H99.7422V46.1769Z" fill="#41444D"/>
<path fill-rule="evenodd" clip-rule="evenodd" d="M108.046 46.1769H108.557V47.9129H108.574C109.141 46.5924 110.348 45.9514 111.575 45.9514C113.084 45.9514 113.878 46.9886 113.878 48.1771V55.6122H113.294V48.4983C113.294 46.9507 112.5 46.4596 111.368 46.4596C110.009 46.4596 108.613 47.8187 108.613 49.4227V55.6122H108.046V46.1769Z" fill="#41444D"/>
<path fill-rule="evenodd" clip-rule="evenodd" d="M125.388 50.7242L122.839 46.1764H123.519L125.782 50.3465L128.066 46.1764H128.671L126.124 50.7049L128.859 55.611H128.217L125.728 51.0825L123.199 55.611H122.594L125.388 50.7242Z" fill="#41444D"/>
<path fill-rule="evenodd" clip-rule="evenodd" d="M51.536 48.9491C51.536 48.0054 52.0835 47.1374 53.2357 47.1374C54.4997 47.1374 54.9344 48.0625 54.9344 49.0069V49.8186H51.536V48.9491ZM54.9123 52.775C54.8106 53.5829 54.3405 54.2899 53.2357 54.2899C52.0835 54.2899 51.536 53.4212 51.536 52.4782V51.2705H56.9137V49.1754C56.9137 46.9311 55.4807 45.5913 53.2926 45.5913C51.1984 45.5913 49.4609 46.9682 49.4609 49.5151V51.9129C49.4609 54.4598 51.1984 55.8375 53.2926 55.8375C55.3039 55.8375 56.676 54.7039 56.8843 52.775H54.9123Z" fill="#41444D"/>
<path fill-rule="evenodd" clip-rule="evenodd" d="M77.5917 48.9491C77.5917 48.0054 78.139 47.1374 79.2905 47.1374C80.554 47.1374 80.9873 48.0625 80.9873 49.0069V49.8186H77.5917V48.9491ZM80.9682 52.775C80.867 53.5829 80.3944 54.2899 79.2905 54.2899C78.139 54.2899 77.5917 53.4212 77.5917 52.4782V51.2705H82.9705V49.1754C82.9705 46.9311 81.5346 45.5913 79.3485 45.5913C77.2527 45.5913 75.5156 46.9682 75.5156 49.5151V51.9129C75.5156 54.4598 77.2527 55.8375 79.3485 55.8375C81.3597 55.8375 82.7308 54.7039 82.9386 52.775H80.9682Z" fill="#41444D"/>
<path fill-rule="evenodd" clip-rule="evenodd" d="M116.207 49.1771C116.207 47.9129 116.886 46.4596 118.623 46.4596C120.51 46.4596 121.075 47.8187 121.075 49.1022V50.3864H116.207V49.1771ZM121.075 52.457V52.6677C121.075 53.9519 120.51 55.3096 118.623 55.3096C116.886 55.3096 116.207 53.857 116.207 52.5927V50.8857H121.075V50.8946H121.622V49.1771C121.622 47.1963 120.621 45.9514 118.754 45.9514C116.886 45.9514 115.623 47.1777 115.623 49.3848V52.3866C115.623 54.5937 116.886 55.8207 118.754 55.8207C120.621 55.8207 121.622 54.5743 121.622 52.5927V52.457H121.075Z" fill="#41444D"/>
<mask id="mask0_1113_20980" style="mask-type:luminance" maskUnits="userSpaceOnUse" x="4" y="38" width="71" height="24">
<path d="M4 38.5H74.3827V61.5498H4V38.5Z" fill="white"/>
</mask>
<g mask="url(#mask0_1113_20980)">
<path fill-rule="evenodd" clip-rule="evenodd" d="M72.3077 51.2325C72.3077 52.6659 71.3075 53.7617 70.3447 53.7617C69.2521 53.7617 68.8733 53.0264 68.8733 52.1021V48.9312C68.8733 47.7412 69.3459 47.0817 70.3835 47.0817C71.2333 47.0817 72.3077 47.9304 72.3077 49.2517V51.2325ZM72.6295 45.8176L72.5534 47.1759H72.5337C72.0621 46.138 70.9121 45.5913 69.9305 45.5913C68.2887 45.5913 66.8164 46.7226 66.8164 48.6093V52.4396C66.8164 54.1015 67.798 55.3085 69.6849 55.3085C70.6659 55.3085 71.7423 54.781 72.3077 53.5918H72.3269V55.6676C72.3269 56.8732 71.6888 57.4088 70.5166 57.483H70.3908C69.6613 57.4592 69.2236 57.1165 68.9883 56.6454H66.9446C67.3705 58.1603 68.6385 59.0328 70.3997 59.0372H70.4085C70.4174 59.0372 70.4247 59.0358 70.435 59.0358C72.9611 59.0239 74.3828 57.7508 74.3828 55.2536V45.8176H72.6295Z" fill="#41444D"/>
</g>
<mask id="mask1_1113_20980" style="mask-type:luminance" maskUnits="userSpaceOnUse" x="4" y="38" width="71" height="24">
<path d="M4 38.5H74.3827V61.5498H4V38.5Z" fill="white"/>
</mask>
<g mask="url(#mask1_1113_20980)">
<path fill-rule="evenodd" clip-rule="evenodd" d="M15.5216 38.5C9.15617 38.5 3.99707 43.6591 3.99707 50.0246C3.99707 56.3892 9.15617 61.5498 15.5216 61.5498C20.4737 61.5498 24.6958 58.425 26.3258 54.0382H21.9315C20.5932 56.1726 18.2265 57.597 15.5216 57.597C11.3403 57.597 7.94766 54.2058 7.94766 50.0246C7.94766 45.8432 11.3403 42.4528 15.5216 42.4528C19.1049 42.4528 22.1014 44.9441 22.8856 48.2885H13.3604V51.7606H26.9156C27.0016 51.1945 27.0461 50.6143 27.0461 50.0246C27.0461 43.6591 21.8855 38.5 15.5216 38.5Z" fill="#2A507B"/>
</g>
<mask id="mask2_1113_20980" style="mask-type:luminance" maskUnits="userSpaceOnUse" x="4" y="38" width="71" height="24">
<path d="M4 38.5H74.3827V61.5498H4V38.5Z" fill="white"/>
</mask>
<g mask="url(#mask2_1113_20980)">
<path fill-rule="evenodd" clip-rule="evenodd" d="M32.7404 38.5C29.8433 38.5 27.1999 39.5706 25.1738 41.3348C26.0686 42.3275 26.8097 43.4603 27.3654 44.6941C28.7379 43.3104 30.6386 42.4528 32.7404 42.4528C36.9216 42.4528 40.3114 45.8432 40.3114 50.0246C40.3114 54.2058 36.9216 57.5955 32.7404 57.5955C30.6386 57.5955 28.7379 56.7387 27.3654 55.3551C26.8097 56.5888 26.0686 57.7216 25.1738 58.7135C27.1985 60.4785 29.8433 61.5498 32.7404 61.5498C39.1058 61.5498 44.2649 56.3892 44.2649 50.0238C44.2649 43.6591 39.1058 38.5 32.7404 38.5Z" fill="#1E90C3"/>
</g>
<path fill-rule="evenodd" clip-rule="evenodd" d="M130.49 44.4875C130.645 44.4875 130.741 44.3985 130.741 44.2657C130.741 44.1025 130.638 44.0358 130.49 44.0358H130.224V44.4875H130.49ZM129.793 43.7026H130.549C130.881 43.7026 131.172 43.8874 131.172 44.2353C131.172 44.4504 131.062 44.65 130.845 44.7398L131.229 45.4135H130.771L130.429 44.7984H130.224V45.4135H129.793V43.7026ZM131.615 44.5988C131.615 43.8132 131.075 43.3243 130.423 43.3243C129.771 43.3243 129.246 43.8065 129.246 44.5988C129.246 45.3837 129.802 45.8504 130.423 45.8504C131.045 45.8504 131.615 45.3756 131.615 44.5988ZM128.86 44.5988C128.86 43.7324 129.513 43.0208 130.423 43.0208C131.379 43.0208 132.001 43.7324 132.001 44.5988C132.001 45.4506 131.364 46.1761 130.423 46.1761C129.446 46.1761 128.86 45.4506 128.86 44.5988Z" fill="#41444D"/>
</g>
<defs>
<clipPath id="clip0_1113_20980">
<rect width="128" height="24" fill="white" transform="translate(4 38.5)"/>
</clipPath>
</defs>
</svg>
