<svg width="141" height="101" viewBox="0 0 141 101" fill="none" xmlns="http://www.w3.org/2000/svg">
<rect x="0.5" y="0.5" width="140" height="100" rx="12" fill="white"/>
<path d="M60.0758 41.2871H56.9187L52.232 45.3229C52.1669 45.3555 52.1344 45.4205 52.0693 45.4531V41.2871H49.6934V51.279H52.0693V47.2106C52.1018 47.2432 52.1669 47.3083 52.232 47.3408L56.9187 51.279H60.0758H60.4989H68.8308V48.903H62.4517V47.3733H68.4077V44.9974H62.4517V43.5979H68.8308V41.222H60.4663H60.0758V41.2871ZM60.0758 50.9535L54.5103 46.3644L60.0758 41.6126V50.9535Z" fill="#2B55A2"/>
<path d="M91.8082 45.6493C91.1573 45.0635 90.3111 44.7706 89.3347 44.7706H84.9734C84.7456 44.7706 84.5503 44.7055 84.4201 44.6078C84.355 44.5427 84.2574 44.4451 84.2574 44.2173C84.2574 44.0545 84.3225 43.9243 84.4527 43.8267C84.6154 43.6965 84.7781 43.664 85.0059 43.664H92.3615V41.2881H85.0059C84.1272 41.2881 83.3461 41.5484 82.7602 42.0366C82.1093 42.5899 81.7513 43.306 81.7513 44.2173C81.7513 45.1286 82.0767 45.8446 82.7602 46.3979C83.3786 46.8861 84.1272 47.1465 85.0059 47.1465H89.3347C89.6927 47.1465 90.0181 47.2116 90.2785 47.3743C90.5389 47.537 90.6691 47.7323 90.6691 48.0252C90.6691 48.3181 90.5389 48.5134 90.2785 48.7087C90.0181 48.8714 89.6927 48.9365 89.3347 48.9365H81.914V51.1823L79.0174 48.2856C79.6032 48.0578 80.0588 47.6998 80.4494 47.2767C81.0027 46.6583 81.2631 45.8771 81.2631 45.0309C81.2631 43.7616 80.7749 42.7852 79.831 42.1343C79.0499 41.581 78.0084 41.2881 76.7391 41.2881H69.709V51.2799H72.0849V43.6314H76.9995C78.6268 43.6314 78.8221 44.3474 78.8221 44.9984C78.8221 45.454 78.6593 45.747 78.3013 46.0073C77.9433 46.2352 77.5202 46.3328 76.9995 46.3328H72.2802V48.6762H75.9905L78.5942 51.2799H81.914H82.0442H89.3347C90.3111 51.2799 91.1573 50.987 91.8082 50.4337C92.5242 49.8153 92.8823 49.0342 92.8823 48.0252C92.8823 47.0488 92.5242 46.2677 91.8082 45.6493Z" fill="#2B55A2"/>
<path d="M92.9482 43.6314H96.626V51.2799H98.9694V43.6314H102.615V41.2881H92.9482V43.6314Z" fill="#2B55A2"/>
<path d="M105.609 41.2881H103.233V51.2799H105.609V41.2881Z" fill="#2B55A2"/>
<path d="M116.999 50.1082V41.2881H114.623V47.179L109.318 41.8739C108.927 41.4833 108.537 41.2881 108.146 41.2881C107.821 41.2881 107.528 41.4182 107.333 41.6786C107.17 41.9064 107.072 42.1668 107.072 42.4597V51.2799H109.416V45.3889L114.721 50.6941C115.176 51.1497 115.6 51.345 115.99 51.345C116.316 51.3775 116.999 51.2474 116.999 50.1082Z" fill="#2B55A2"/>
<path d="M122.761 45.4215V47.6672H127.154V48.9365H123.249C122.468 48.9365 121.817 48.7087 121.329 48.2205C120.84 47.7323 120.58 47.1139 120.58 46.3328C120.58 45.5191 120.808 44.9007 121.329 44.4125C121.849 43.9243 122.468 43.664 123.249 43.664H128.847V41.2881H123.249C121.784 41.2881 120.58 41.7437 119.636 42.655C118.692 43.5663 118.204 44.738 118.204 46.2026C118.204 47.6672 118.692 48.904 119.636 49.8478C120.58 50.8243 121.817 51.3125 123.249 51.3125H129.498V45.454H122.761V45.4215Z" fill="#2B55A2"/>
<path d="M50.2797 52.8087H49.8892V54.8266H50.2797V52.8087Z" fill="#2B55A2"/>
<path d="M53.435 52.8087H53.0444V54.8266H54.2487V54.5337H53.435V52.8087Z" fill="#2B55A2"/>
<path d="M58.0245 53.8497C58.0245 54.045 58.0245 54.2077 57.992 54.2728C57.9269 54.4355 57.7967 54.5332 57.6014 54.5332C57.4387 54.5332 57.3411 54.4681 57.276 54.3705C57.2434 54.3054 57.2109 54.2077 57.2109 54.1101C57.2109 54.045 57.2109 53.9799 57.2109 53.8497V52.7757H56.8203V53.8823C56.8203 54.045 56.8203 54.1426 56.8203 54.2077C56.8203 54.3379 56.8529 54.4355 56.9179 54.5006C57.0481 54.7285 57.276 54.8261 57.634 54.8261C57.9594 54.8261 58.1873 54.7285 58.35 54.5006C58.3826 54.4355 58.4151 54.3379 58.4476 54.2728C58.4802 54.1752 58.4802 54.0775 58.4802 53.9148V52.7757H58.1222V53.8497H58.0245Z" fill="#2B55A2"/>
<path d="M62.1912 54.2728L61.5728 52.7757H61.1172V54.8261H61.4427V53.7195C61.4427 53.5893 61.4427 53.4266 61.4427 53.2639C61.5077 53.4591 61.5728 53.6219 61.6054 53.687L62.0936 54.8261H62.2889L62.7771 53.687C62.8422 53.5568 62.9073 53.3941 62.9398 53.2639C62.9398 53.4917 62.9073 53.6544 62.9073 53.7195V54.8261H63.2978V52.8082H62.8422L62.1912 54.2728Z" fill="#2B55A2"/>
<path d="M66.4228 52.8087H66.0322V54.8266H66.4228V52.8087Z" fill="#2B55A2"/>
<path d="M70.5551 54.2082L69.4811 52.8087H69.2207V54.8266H69.5136V53.4271L70.6202 54.8266H70.8806V52.8087H70.5551V54.2082Z" fill="#2B55A2"/>
<path d="M74.2346 52.8087L73.4209 54.8266H73.7464L73.9416 54.2733H74.6577L74.853 54.8266H75.2761L74.5275 52.8087H74.2346ZM74.0393 54.0129L74.3322 53.2318L74.5926 54.0129H74.0393Z" fill="#2B55A2"/>
<path d="M78.8235 53.0686C78.9537 53.0686 79.1165 53.1011 79.2466 53.1988L79.3768 52.9384C79.1815 52.8408 78.9863 52.7757 78.791 52.7757C78.4655 52.7757 78.2051 52.8733 77.9773 53.0686C77.7495 53.2639 77.6519 53.5242 77.6519 53.8172C77.6519 54.1101 77.7495 54.3705 77.9773 54.5657C78.1726 54.761 78.4655 54.8587 78.791 54.8587C79.0188 54.8587 79.2141 54.7936 79.3768 54.6959L79.2792 54.4355C79.149 54.5006 79.0188 54.5332 78.8561 54.5332C78.6283 54.5332 78.4655 54.4681 78.3028 54.3054C78.1726 54.1752 78.1075 53.9799 78.1075 53.7521C78.1075 53.5242 78.1726 53.329 78.3028 53.1988C78.433 53.1337 78.5957 53.0686 78.8235 53.0686Z" fill="#2B55A2"/>
<path d="M82.3701 52.8087H81.9795V54.8266H82.3701V52.8087Z" fill="#2B55A2"/>
<path d="M86.0488 52.7757C85.7559 52.7757 85.4955 52.8733 85.3002 53.0686C85.105 53.2639 85.0073 53.4917 85.0073 53.8172C85.0073 54.1101 85.105 54.3705 85.2677 54.5657C85.463 54.761 85.6908 54.8587 85.9837 54.8587C86.2766 54.8587 86.537 54.761 86.6998 54.5657C86.895 54.3705 86.9601 54.1101 86.9601 53.8172C86.9601 53.5242 86.8625 53.2964 86.6672 53.1011C86.5696 52.8733 86.3417 52.7757 86.0488 52.7757ZM86.4719 54.3705C86.3743 54.5006 86.2441 54.5657 86.0488 54.5657C85.8535 54.5657 85.7234 54.4681 85.5932 54.3054C85.4955 54.1752 85.463 54.0124 85.463 53.7846C85.463 53.5893 85.4955 53.4266 85.5932 53.2639C85.6908 53.1011 85.8535 53.0035 86.0163 53.0035C86.2116 53.0035 86.3417 53.0686 86.4394 53.1988C86.537 53.329 86.6021 53.5242 86.6021 53.7521C86.6021 54.045 86.5696 54.2403 86.4719 54.3705Z" fill="#2B55A2"/>
<path d="M91.0608 54.2082L89.9868 52.8087H89.6938V54.8266H90.0193V53.4271L91.1259 54.8266H91.3863V52.8087H91.0608V54.2082Z" fill="#2B55A2"/>
<path d="M97.7639 53.687L97.3733 52.7757L96.9502 52.8408L97.536 53.9799V54.8261H97.9266V53.9799L98.6101 52.8082L98.2521 52.7757L97.7639 53.687Z" fill="#2B55A2"/>
<path d="M104.567 53.9153H105.25V53.6224H104.567V53.0691H105.25V52.8087H104.176V54.8266H105.38V54.5337H104.567V53.9153Z" fill="#2B55A2"/>
<path d="M109.32 54.2082L108.246 52.8087H107.985V54.8266H108.311V53.4271L109.385 54.8266H109.645V52.8087H109.32V54.2082Z" fill="#2B55A2"/>
<path d="M112.802 53.9153H113.486V53.6224H112.802V53.0691H113.518V52.8087H112.412V54.8266H113.616V54.5337H112.802V53.9153Z" fill="#2B55A2"/>
<path d="M117.553 53.3624C117.553 53.1671 117.488 53.037 117.357 52.9393C117.292 52.8742 117.195 52.8417 117.097 52.8417C117.032 52.8417 116.934 52.8417 116.804 52.8417H116.218V54.827H116.609V54.0134H116.837L117.26 54.8596L117.683 54.7945L117.195 53.9483C117.455 53.7855 117.553 53.5902 117.553 53.3624ZM117.064 53.6553C116.999 53.7204 116.902 53.753 116.739 53.753H116.609V53.0695H116.772C116.902 53.0695 116.999 53.102 117.032 53.1346C117.097 53.1997 117.13 53.2648 117.13 53.395C117.162 53.4926 117.13 53.5902 117.064 53.6553Z" fill="#2B55A2"/>
<path d="M121.556 54.5332C121.459 54.5657 121.394 54.5983 121.296 54.5983C121.101 54.5983 120.905 54.5332 120.775 54.3705C120.645 54.2403 120.58 54.045 120.58 53.8172C120.58 53.5893 120.645 53.4266 120.775 53.2639C120.905 53.1337 121.101 53.0686 121.328 53.0686C121.459 53.0686 121.621 53.1011 121.752 53.1662L121.882 52.9384C121.686 52.8408 121.491 52.7757 121.296 52.7757C120.97 52.7757 120.677 52.8733 120.482 53.0686C120.254 53.2639 120.157 53.5242 120.157 53.8172C120.157 54.1101 120.254 54.3705 120.482 54.5657C120.677 54.761 120.97 54.8587 121.296 54.8587C121.491 54.8587 121.752 54.8261 121.979 54.7285V53.8823H121.556V54.5332Z" fill="#2B55A2"/>
<path d="M125.071 52.8087H124.68V54.8266H125.071V52.8087Z" fill="#2B55A2"/>
<path d="M128.423 52.8087L127.609 54.8266H127.934L128.13 54.2733H128.846L129.041 54.8266H129.464L128.715 52.8087H128.423ZM128.227 54.0129L128.52 53.2318L128.781 54.0129H128.227Z" fill="#2B55A2"/>
<path d="M20.3042 64.43H39.7997L13.502 36.57L20.3042 64.43Z" fill="#2B55A2"/>
<path fill-rule="evenodd" clip-rule="evenodd" d="M76.708 64.3324L26.4559 48.2217L58.6446 36.57H29.4827L26.4559 48.2217H26.4233H26.4559L56.5291 64.3324H76.708Z" fill="#F6D330"/>
</svg>
