<svg width="141" height="101" viewBox="0 0 141 101" fill="none" xmlns="http://www.w3.org/2000/svg">
<rect x="0.5" y="0.5" width="140" height="100" rx="12" fill="white"/>
<path d="M60.6004 37.7551L59.1509 40.0768L60.6004 42.3972H63.4963L64.9421 40.0768L63.4963 37.7551H60.6004Z" fill="#D60812"/>
<mask id="mask0_1113_21015" style="mask-type:luminance" maskUnits="userSpaceOnUse" x="59" y="37" width="6" height="6">
<path d="M60.5975 37.7519L59.1479 40.0736L60.5975 42.3941H63.4934L64.9392 40.0736L63.4934 37.7519H60.5975Z" fill="white"/>
</mask>
<g mask="url(#mask0_1113_21015)">
<path d="M64.567 37.7519H59.2729V42.3947H64.567V37.7519Z" fill="#D60812"/>
</g>
<path d="M109.783 44.8704C109.224 44.2891 108.547 43.8334 107.799 43.5335C106.99 43.2081 106.126 43.0456 105.254 43.0553C104.21 43.0234 103.176 43.2695 102.258 43.7685C101.376 44.3069 100.683 45.1062 100.274 46.0562C99.9619 45.5672 99.6119 45.1037 99.2271 44.6701C98.9025 44.307 98.5308 43.9892 98.1221 43.725C97.7191 43.4754 97.2751 43.2994 96.8108 43.2052C96.2623 43.097 95.7041 43.0452 95.145 43.0508C94.1029 43.0192 93.0703 43.2579 92.1473 43.7439C91.2729 44.2063 90.0471 45.067 90.0471 46.3208V44.0526H85.415V62.2917H90.0471V50.9453C90.0471 48.507 91.0342 47.2873 93.0084 47.286C93.4638 47.2769 93.9181 47.3346 94.3568 47.4574C94.7135 47.5615 95.0327 47.7667 95.2758 48.0484C95.4924 48.3933 95.6219 48.7861 95.6529 49.1925C95.71 49.8134 95.7165 50.438 95.6724 51.06V62.2961H100.966V51.1368C100.903 50.1204 101.183 49.1122 101.763 48.2758C102.006 47.9206 102.333 47.6306 102.714 47.4315C103.096 47.2323 103.52 47.13 103.95 47.1335C104.344 47.125 104.734 47.2193 105.081 47.407C105.428 47.5948 105.72 47.8696 105.93 48.2046C106.412 48.9364 106.644 49.8053 106.592 50.6807V62.2993H111.224V49.3185C111.283 48.4916 111.178 47.6612 110.915 46.8752C110.673 46.1384 110.289 45.4567 109.784 44.8691" fill="#161615"/>
<path d="M128.448 45.9123C126.987 44.0562 124.834 43.1092 121.989 43.1092C120.698 43.0829 119.413 43.3067 118.207 43.7682C117.143 44.1873 116.188 44.8445 115.416 45.6899C114.636 46.5623 114.043 47.5869 113.675 48.6996C113.261 49.9664 113.059 51.2931 113.076 52.626C113.076 59.438 116.146 62.8432 122.287 62.8415C124.116 62.862 125.903 62.2872 127.379 61.2034C128.93 60.1397 130.005 58.5098 130.374 56.6621H125.355C125.191 57.3378 124.768 57.9214 124.177 58.2863C123.54 58.6748 122.809 58.8799 122.064 58.8792C121.521 58.9083 120.979 58.8155 120.476 58.6074C119.974 58.3992 119.524 58.0812 119.16 57.6764C118.341 56.7636 117.905 55.5684 117.945 54.341H130.635C130.635 50.3616 129.907 47.7722 128.448 45.916M118.094 51.0213C118.194 50.3578 118.602 48.772 119.311 48.0481C119.636 47.7054 120.029 47.4343 120.464 47.252C120.899 47.0696 121.368 46.9801 121.839 46.989C122.312 46.9941 122.781 47.0837 123.222 47.2536C123.671 47.4218 124.08 47.6836 124.42 48.0216C124.787 48.3718 125.075 48.7953 125.267 49.2647C125.488 49.8246 125.607 50.4194 125.62 51.0213H118.094Z" fill="#161615"/>
<path d="M132.727 62.2944H132.065V37.7542H136.697V58.3768C136.697 62.6794 132.646 62.21 132.646 62.21" fill="#161615"/>
<path d="M82.5181 46.6248C82.2711 45.8953 81.8758 45.2251 81.3571 44.6566C80.8344 44.1183 80.1958 43.7069 79.4902 43.4538C78.7208 43.1812 77.9099 43.0451 77.094 43.0519C75.827 42.9987 74.5687 43.2842 73.4481 43.8791C72.4989 44.4875 71.72 45.3284 71.1852 46.3224V44.0543H66.2256V62.2934H71.1915V51.594C71.1915 48.721 72.5624 47.2845 75.0831 47.2845C75.5122 47.2396 75.946 47.2842 76.3571 47.4155C76.7681 47.5468 77.1477 47.762 77.4718 48.0475C77.9445 48.5559 78.1374 49.5344 78.1374 50.9829V62.2953H82.7695V49.3164C82.8531 48.4111 82.7678 47.4988 82.5181 46.6248Z" fill="#161615"/>
<path d="M59.9375 43.7052V62.2946H60.1789C60.1789 62.2946 64.5696 62.6821 64.5696 58.3726V44.0555H59.9375V43.7052Z" fill="#161615"/>
<path d="M52.5085 50.4997C52.5085 62.6501 42.8363 72.4995 30.9062 72.4995C18.9762 72.4995 9.30273 62.6501 9.30273 50.4997C9.30273 38.3493 18.9749 28.5005 30.9056 28.5005C42.8363 28.5005 52.5085 38.3499 52.5085 50.4997ZM24.0244 37.7552H21.163L20.4477 38.8155L19.7324 39.9654L20.4477 41.182L21.163 42.398H24.0238L24.7391 41.1379L25.4544 39.8866L24.7391 38.8212L24.0244 37.7552ZM39.4186 32.9038C37.5926 32.6934 35.7351 33.6599 34.273 35.7497C33.4991 36.9964 32.9528 38.3712 32.6594 39.8097C32.1408 41.8555 30.4782 50.7202 30.1331 53.098C29.7936 55.2515 29.2461 58.3475 29.0267 59.3619C28.5302 61.6647 27.8412 64.561 25.7813 66.0214C25.2814 66.4418 24.6729 66.7116 24.0263 66.7995C22.7171 66.8784 21.4278 66.4498 20.4251 65.6024C18.24 63.6444 16.6424 61.1149 15.8112 58.2977C15.3201 56.7461 14.9508 55.1584 14.7068 53.5491C14.4904 52.4949 14.336 51.429 14.2441 50.3567H11.3262C14.7451 64.6164 19.0352 67.4567 22.6031 67.8662C24.4261 68.0766 26.2854 67.1366 27.7476 65.0512C29.1638 63.023 29.6773 60.5098 30.0551 58.098C30.4599 55.5079 30.8792 52.9468 31.3639 50.3718C31.6857 48.6631 31.9981 46.9523 32.3011 45.2395C32.5249 43.9794 32.7254 42.7193 32.9925 41.4636C33.4898 39.1608 34.18 36.267 36.238 34.8059C36.7383 34.3856 37.3473 34.1158 37.9943 34.0278C39.3036 33.9506 40.5927 34.379 41.5967 35.2249C43.78 37.1844 45.3777 39.713 46.2119 42.529C46.7002 44.0623 47.0692 45.6312 47.3157 47.2216C47.4898 48.2725 47.6388 49.6907 47.7771 50.3535H50.6918C47.2773 36.0975 42.9847 33.3178 39.4186 32.9064V32.9038Z" fill="#D60812"/>
</svg>
