<svg width="141" height="101" viewBox="0 0 141 101" fill="none" xmlns="http://www.w3.org/2000/svg">
<rect x="0.5" y="0.5" width="140" height="100" rx="12" fill="white"/>
<path d="M47.7751 42.2233C47.7202 42.0258 47.6434 41.7516 47.5447 41.4114C47.5008 41.2798 47.4569 41.1372 47.413 41.0055C46.7657 38.9758 45.3943 35.4102 43.0355 32.5467C43.0355 32.5467 41.8945 32.437 39.9526 32.5906C37.5937 32.7661 34.1049 33.3256 30.3417 34.9165C30.243 34.9604 30.1443 34.9933 30.0346 35.0371L30.0455 35.0481C28.3011 35.8051 26.5128 36.7925 24.7464 38.0652C24.7464 38.0652 15.6403 43.8471 14.1811 54.4124C14.1811 54.4124 13.6435 58.6034 14.9162 62.202C14.9162 62.202 15.0917 45.416 37.5608 41.949H37.5828C37.9668 42.4647 38.3288 42.9913 38.658 43.5399C40.1171 45.9865 41.7299 49.0694 42.6625 52.8874C38.625 49.3217 32.2617 45.9097 24.1211 48.7183C24.1211 48.7183 38.5263 45.7451 42.092 68.4995C42.092 68.4995 42.1139 68.4885 42.1358 68.4556C42.1468 68.4446 42.1578 68.4446 42.1688 68.4336C42.2017 68.4007 42.2346 68.3678 42.2785 68.3239C42.3004 68.302 42.3114 68.291 42.3333 68.2691C42.3882 68.2142 42.443 68.1594 42.4979 68.0935C42.5198 68.0716 42.5418 68.0387 42.5747 68.0167C42.6405 67.9399 42.7173 67.8522 42.8051 67.7644C42.827 67.7315 42.8599 67.7095 42.8819 67.6766C42.9806 67.5669 43.0903 67.4353 43.2001 67.2926C43.211 67.2707 43.233 67.2597 43.2439 67.2378C43.6499 66.7441 44.1326 66.0968 44.6373 65.2959C44.6592 65.2629 44.6812 65.2191 44.7031 65.1861C44.8457 64.9557 44.9884 64.7144 45.131 64.462C45.1639 64.4072 45.1968 64.3414 45.2297 64.2865C45.3724 64.0451 45.504 63.7818 45.6466 63.5185C45.6796 63.4527 45.7125 63.3869 45.7564 63.3101C45.899 63.0248 46.0416 62.7286 46.1842 62.4214C46.2171 62.3556 46.2391 62.3007 46.272 62.2458C46.6121 61.4998 46.9303 60.677 47.2265 59.7883C47.2484 59.7115 47.2704 59.6237 47.3033 59.5469C47.402 59.2507 47.5008 58.9545 47.5886 58.6363V58.6253C47.9067 57.5392 48.181 56.3653 48.3895 55.0816C49.1684 50.4518 48.8503 46.1181 47.7751 42.2233Z" fill="white"/>
<path d="M14.9262 62.1932C14.9262 62.1932 15.1017 45.4072 37.5708 41.9403C37.5708 41.9403 44.0877 41.3149 47.8838 42.6095C47.8838 42.6095 46.5453 36.7948 43.0455 32.5379C43.0455 32.5379 33.5224 31.7041 24.7674 38.0455C24.7674 38.0455 15.6612 43.8273 14.2021 54.4036C14.1911 54.4036 13.6535 58.6056 14.9262 62.1932Z" fill="url(#paint0_linear_1113_20997)"/>
<path d="M30.0459 35.0273C30.0459 35.0273 35.6522 38.4942 38.6693 43.53C41.6864 48.5767 45.3179 56.3115 42.3886 67.6338L42.1033 68.4896C42.1033 68.4896 46.8977 64.3095 48.4008 55.0717C49.86 46.1082 47.3256 38.2418 43.0249 32.5368C43.0359 32.5477 37.5063 31.9663 30.0459 35.0273Z" fill="url(#paint1_linear_1113_20997)"/>
<path d="M24.1328 48.7195C24.1328 48.7195 38.5381 45.7463 42.1037 68.5007C42.1037 68.5007 45.6694 65.3958 47.6113 58.6375C47.6113 58.6375 38.7246 43.6837 24.1328 48.7195Z" fill="url(#paint2_linear_1113_20997)"/>
<path d="M59.0326 47.0093C58.7254 47.0093 58.4511 46.9544 58.2098 46.8557C57.9574 46.7569 57.749 46.6143 57.5734 46.4388C57.3979 46.2632 57.2553 46.0548 57.1565 45.8134C57.0578 45.572 57.0029 45.3087 57.0029 45.0125V45.0015C57.0029 44.7272 57.0578 44.4639 57.1565 44.2226C57.2553 43.9812 57.3979 43.7727 57.5844 43.5862C57.7599 43.3997 57.9794 43.2571 58.2207 43.1584C58.4621 43.0486 58.7364 43.0048 59.0326 43.0048C59.2082 43.0048 59.3617 43.0157 59.5044 43.0377C59.647 43.0596 59.7787 43.0925 59.8993 43.1364C60.02 43.1803 60.1297 43.2352 60.2394 43.301C60.3492 43.3668 60.4479 43.4436 60.5466 43.5314L60.0091 44.1787C59.9323 44.1129 59.8664 44.058 59.7896 44.0141C59.7128 43.9702 59.636 43.9263 59.5592 43.8934C59.4824 43.8605 59.3947 43.8386 59.3069 43.8166C59.2191 43.7947 59.1094 43.7837 58.9997 43.7837C58.8461 43.7837 58.7035 43.8166 58.5608 43.8825C58.4292 43.9483 58.3085 44.0361 58.2098 44.1458C58.111 44.2555 58.0342 44.3871 57.9684 44.5298C57.9135 44.6724 57.8806 44.837 57.8806 45.0015V45.0125C57.8806 45.188 57.9135 45.3526 57.9684 45.5062C58.0233 45.6598 58.111 45.7805 58.2098 45.9012C58.3195 46.0109 58.4402 46.0987 58.5828 46.1535C58.7254 46.2193 58.879 46.2413 59.0546 46.2413C59.3727 46.2413 59.636 46.1645 59.8555 46.0109V45.4513H59.0107V44.7163H60.6893V46.3949C60.4918 46.5594 60.2504 46.713 59.9761 46.8337C59.7019 46.9544 59.3837 47.0093 59.0326 47.0093Z" fill="#152B51"/>
<path d="M61.5005 43.0696H63.2668C63.7605 43.0696 64.1336 43.2012 64.3969 43.4645C64.6163 43.684 64.726 43.9802 64.726 44.3532V44.3642C64.726 44.6823 64.6492 44.9347 64.4956 45.1322C64.342 45.3296 64.1445 45.4723 63.8922 45.571L64.8357 46.9534H63.8373L63.0035 45.7136H62.9925H62.3343V46.9534H61.4785V43.0696H61.5005ZM63.212 44.9566C63.4204 44.9566 63.585 44.9018 63.6947 44.803C63.8044 44.7043 63.8593 44.5726 63.8593 44.4081V44.3971C63.8593 44.2106 63.8044 44.0789 63.6837 43.9802C63.5631 43.8924 63.3985 43.8376 63.19 43.8376H62.3452V44.9456H63.212V44.9566Z" fill="#152B51"/>
<path d="M67.1073 46.9973C66.5917 46.9973 66.1748 46.8546 65.8785 46.5694C65.5823 46.2841 65.4287 45.8563 65.4287 45.2858V43.0696H66.2845V45.2638C66.2845 45.582 66.3613 45.8233 66.5039 45.9769C66.6465 46.1415 66.855 46.2183 67.1183 46.2183C67.3816 46.2183 67.5791 46.1415 67.7327 45.9879C67.8753 45.8343 67.9521 45.6039 67.9521 45.2967V43.0696H68.8079V45.2528C68.8079 45.5491 68.764 45.8014 68.6872 46.0208C68.6104 46.2403 68.4897 46.4158 68.3471 46.5694C68.2044 46.712 68.0179 46.8217 67.8095 46.8985C67.601 46.9644 67.3706 46.9973 67.1073 46.9973Z" fill="#152B51"/>
<path d="M69.6758 43.0696H71.2556C71.486 43.0696 71.6945 43.1025 71.881 43.1683C72.0675 43.2341 72.2211 43.3219 72.3418 43.4426C72.4734 43.5633 72.5612 43.7059 72.638 43.8705C72.7038 44.035 72.7368 44.2106 72.7368 44.419V44.43C72.7368 44.6494 72.6929 44.8469 72.6161 45.0224C72.5393 45.187 72.4186 45.3296 72.2869 45.4503C72.1443 45.56 71.9797 45.6478 71.7932 45.7027C71.6067 45.7575 71.3983 45.7904 71.1788 45.7904H70.5315V46.9534H69.6758V43.0696ZM71.2008 45.0224C71.4092 45.0224 71.5848 44.9676 71.6945 44.8579C71.8152 44.7482 71.87 44.6055 71.87 44.441V44.43C71.87 44.2435 71.8042 44.0899 71.6835 43.9911C71.5628 43.8924 71.3873 43.8376 71.1788 43.8376H70.5206V45.0224H71.2008Z" fill="#152B51"/>
<path d="M75.2469 47.0099C74.9507 47.0099 74.6764 46.955 74.4241 46.8563C74.1718 46.7466 73.9523 46.6149 73.7768 46.4284C73.5903 46.2528 73.4477 46.0444 73.3489 45.803C73.2502 45.5617 73.1953 45.2983 73.1953 45.0241V45.0131C73.1953 44.7388 73.2502 44.4755 73.3489 44.2341C73.4477 43.9928 73.5903 43.7843 73.7768 43.5978C73.9633 43.4113 74.1718 43.2687 74.4241 43.1699C74.6764 43.0602 74.9507 43.0163 75.2469 43.0163C75.5432 43.0163 75.8174 43.0712 76.0698 43.1699C76.3221 43.2796 76.5415 43.4113 76.7171 43.5978C76.9036 43.7733 77.0462 43.9818 77.145 44.2232C77.2437 44.4645 77.2986 44.7278 77.2986 45.0021V45.0131C77.2986 45.2874 77.2437 45.5507 77.145 45.7921C77.0462 46.0334 76.9036 46.2419 76.7171 46.4284C76.5306 46.6149 76.3221 46.7575 76.0698 46.8563C75.8174 46.955 75.5432 47.0099 75.2469 47.0099ZM75.2579 46.2199C75.4225 46.2199 75.587 46.187 75.7297 46.1212C75.8723 46.0554 75.993 45.9676 76.0917 45.8579C76.1905 45.7482 76.2673 45.6165 76.3331 45.4739C76.388 45.3313 76.4209 45.1777 76.4209 45.0021V44.9912C76.4209 44.8266 76.388 44.673 76.3331 44.5194C76.2782 44.3768 76.1905 44.2451 76.0917 44.1354C75.982 44.0257 75.8613 43.9379 75.7187 43.8721C75.5761 43.8063 75.4225 43.7733 75.2469 43.7733C75.0714 43.7733 74.9178 43.8063 74.7752 43.8721C74.6325 43.9379 74.5119 44.0257 74.4131 44.1354C74.3144 44.2451 74.2376 44.3768 74.1718 44.5194C74.1169 44.662 74.084 44.8156 74.084 44.9912V45.0021C74.084 45.1667 74.1169 45.3203 74.1718 45.4739C74.2266 45.6165 74.3144 45.7482 74.4131 45.8579C74.5228 45.9676 74.6435 46.0554 74.7861 46.1212C74.9178 46.198 75.0824 46.2199 75.2579 46.2199Z" fill="#152B51"/>
<path d="M57.0029 57.2232V48.4243H58.5608L62.3569 52.8237L66.153 48.4243H67.7109V57.1464C67.7109 57.7498 67.2172 58.2435 66.6137 58.2435H65.0449L65.0339 53.0761L62.3679 56.0383L59.6689 53.0322V58.2435H58.0342C57.4637 58.2545 57.0029 57.7937 57.0029 57.2232Z" fill="#152B51"/>
<path d="M68.5557 53.1846C68.5557 51.7803 69.0055 50.6283 69.8942 49.7396C70.7828 48.8509 71.9348 48.4011 73.3391 48.4011C74.7434 48.4011 75.8625 48.8509 76.6854 49.7396C77.5192 50.6283 77.9251 51.7803 77.9251 53.1846V54.1391H71.3204C71.3862 54.6547 71.6057 55.0497 71.9897 55.335C72.3737 55.6202 72.8235 55.7628 73.3282 55.7628C74.2168 55.7628 75.0177 55.5105 75.7199 54.9948L77.2559 56.5308C76.5537 57.4853 75.2481 57.9681 73.3282 57.9681C71.9238 57.9681 70.7719 57.5182 69.8832 56.6296C69.0055 55.7409 68.5557 54.5889 68.5557 53.1846ZM74.6886 51.0342C74.3046 50.749 73.8548 50.6063 73.3501 50.6063C72.8345 50.6063 72.3956 50.749 72.0116 51.0342C71.6276 51.3195 71.4411 51.7254 71.4411 52.2301H75.2701C75.2591 51.7254 75.0726 51.3195 74.6886 51.0342Z" fill="#152B51"/>
<path d="M88.3027 49.4561C88.9829 48.7539 89.8168 48.4028 90.8042 48.4028C91.1114 48.4028 91.4186 48.4248 91.6928 48.4796L91.2759 51.1237C90.9578 50.8384 90.5189 50.6958 89.9374 50.6739C89.2901 50.7178 88.7416 51.1895 88.3137 52.0892V57.9698H85.6367V49.7633C85.6367 49.1489 86.0975 48.6332 86.7119 48.5674L88.3137 48.3919V49.4561H88.3027Z" fill="#152B51"/>
<path d="M93.0545 56.664C92.1219 55.7315 91.6611 54.5685 91.6611 53.1861C91.6611 51.7928 92.1219 50.6298 93.0545 49.6973C93.987 48.7647 95.15 48.3039 96.5433 48.3039C97.9367 48.3039 99.0996 48.7647 100.021 49.6973C100.954 50.6298 101.415 51.7928 101.415 53.1861C101.415 54.5795 100.954 55.7424 100.021 56.675C99.0887 57.6075 97.9257 58.0683 96.5433 58.0683C95.15 58.0683 93.987 57.6075 93.0545 56.664ZM96.5324 55.7534C97.2565 55.7534 97.8489 55.512 98.2987 55.0183C98.7486 54.5356 98.979 53.9212 98.979 53.1971C98.979 52.473 98.7486 51.8586 98.2987 51.3649C97.8489 50.8712 97.2565 50.6298 96.5214 50.6298C95.7973 50.6298 95.2158 50.8712 94.766 51.3649C94.3162 51.8586 94.0858 52.462 94.0858 53.1971C94.0858 53.9212 94.3162 54.5356 94.766 55.0183C95.2158 55.512 95.8083 55.7534 96.5324 55.7534Z" fill="#152B51"/>
<path d="M102.062 61.9962V49.6645C102.062 49.105 102.478 48.6442 103.038 48.5784L104.749 48.3919V49.1598C105.463 48.6442 106.165 48.3919 106.856 48.3919C108.326 48.3919 109.489 48.8746 110.345 49.8291C111.212 50.7836 111.639 51.9027 111.639 53.1753C111.639 54.448 111.212 55.5671 110.345 56.5216C109.478 57.4761 108.315 57.9588 106.856 57.9588C105.901 57.893 105.199 57.6406 104.749 57.1798V60.8552C104.749 61.4806 104.234 61.9962 103.608 61.9962H102.062ZM104.739 52.3196V53.8665C104.87 54.9417 105.539 55.5671 106.746 55.7536C108.282 55.6329 109.138 54.843 109.335 53.3728C109.27 51.5845 108.414 50.6629 106.746 50.5971C105.539 50.7836 104.87 51.3651 104.739 52.3196Z" fill="#152B51"/>
<path d="M113.55 56.664C112.617 55.7315 112.156 54.5685 112.156 53.1861C112.156 51.7928 112.617 50.6298 113.55 49.6973C114.482 48.7647 115.645 48.3039 117.027 48.3039C118.421 48.3039 119.584 48.7647 120.505 49.6973C121.438 50.6298 121.899 51.7928 121.899 53.1861C121.899 54.5795 121.438 55.7424 120.505 56.675C119.573 57.6075 118.41 58.0683 117.027 58.0683C115.645 58.0683 114.482 57.6075 113.55 56.664ZM117.017 55.7534C117.741 55.7534 118.333 55.512 118.783 55.0183C119.233 54.5356 119.463 53.9212 119.463 53.1971C119.463 52.473 119.233 51.8586 118.783 51.3649C118.333 50.8712 117.741 50.6298 117.006 50.6298C116.281 50.6298 115.7 50.8712 115.25 51.3649C114.8 51.8586 114.57 52.462 114.57 53.1971C114.57 53.9212 114.8 54.5356 115.25 55.0183C115.7 55.512 116.292 55.7534 117.017 55.7534Z" fill="#152B51"/>
<path d="M84.1903 55.5995C83.8172 55.6872 83.5759 55.7201 83.4771 55.7201C83.137 55.7201 82.8627 55.6214 82.6543 55.413C82.4458 55.2045 82.3361 54.8424 82.3361 54.3378V50.5746H83.7734V48.4133H82.3361V46.9431H80.7453C80.1419 46.9431 79.6482 47.4369 79.6482 48.0403V48.4133H78.2109V50.5746H79.6372V50.6295V54.7218C79.6372 55.6763 79.9554 56.4552 80.5917 57.0696C81.228 57.673 82.0948 57.9802 83.1809 57.9802C83.7734 57.9802 84.3 57.8266 84.7608 57.5304L84.1903 55.5995Z" fill="#152B51"/>
<path d="M127.351 55.5995C126.978 55.6872 126.736 55.7201 126.638 55.7201C126.297 55.7201 126.023 55.6214 125.815 55.413C125.606 55.2045 125.497 54.8424 125.497 54.3378V50.3991V50.3771V48.2158V46.9431H123.906C123.302 46.9431 122.809 47.4369 122.809 48.0403V48.2158V50.3771V50.3991V54.7218C122.809 55.6763 123.127 56.4552 123.763 57.0696C124.399 57.673 125.266 57.9802 126.352 57.9802C126.945 57.9802 127.471 57.8266 127.932 57.5304L127.351 55.5995Z" fill="#152B51"/>
<path d="M56.8154 62.0831V62.0721C56.8154 60.9421 57.6712 60.0205 58.889 60.0205C59.635 60.0205 60.0849 60.2728 60.4579 60.6349L59.8984 61.2712C59.5912 60.9969 59.284 60.8214 58.878 60.8214C58.2088 60.8214 57.726 61.3809 57.726 62.0611V62.0721C57.726 62.7523 58.1978 63.3228 58.878 63.3228C59.3278 63.3228 59.6131 63.1363 59.9203 62.862L60.4798 63.4216C60.0739 63.8604 59.6131 64.1347 58.8561 64.1347C57.6822 64.1237 56.8154 63.2241 56.8154 62.0831Z" fill="#152B51"/>
<path d="M61.1816 60.0853H62.0593V61.6542H63.6721V60.0853H64.5498V64.0569H63.6721V62.466H62.0593V64.0569H61.1816V60.0853Z" fill="#152B51"/>
<path d="M65.5264 60.0853H66.4041V64.0569H65.5264V60.0853Z" fill="#152B51"/>
<path d="M67.3916 60.0853H68.2693V63.256H70.2441V64.0459H67.3916V60.0853Z" fill="#152B51"/>
<path d="M70.9133 60.0853H73.9085V60.8642H71.78V61.6651H73.6561V62.4441H71.78V63.2779H73.9304V64.0569H70.9023V60.0853H70.9133Z" fill="#152B51"/>
<defs>
<linearGradient id="paint0_linear_1113_20997" x1="14.0804" y1="47.3511" x2="47.877" y2="47.3511" gradientUnits="userSpaceOnUse">
<stop stop-color="#89272D"/>
<stop offset="0.0267827" stop-color="#95262C"/>
<stop offset="0.1029" stop-color="#B02329"/>
<stop offset="0.1896" stop-color="#C62027"/>
<stop offset="0.2898" stop-color="#D81E26"/>
<stop offset="0.4119" stop-color="#E41D25"/>
<stop offset="0.5791" stop-color="#EB1C24"/>
<stop offset="1" stop-color="#ED1C24"/>
</linearGradient>
<linearGradient id="paint1_linear_1113_20997" x1="30.0444" y1="50.4974" x2="48.8257" y2="50.4974" gradientUnits="userSpaceOnUse">
<stop stop-color="#89272D"/>
<stop offset="0.0267827" stop-color="#95262C"/>
<stop offset="0.1029" stop-color="#B02329"/>
<stop offset="0.1896" stop-color="#C62027"/>
<stop offset="0.2898" stop-color="#D81E26"/>
<stop offset="0.4119" stop-color="#E41D25"/>
<stop offset="0.5791" stop-color="#EB1C24"/>
<stop offset="1" stop-color="#ED1C24"/>
</linearGradient>
<linearGradient id="paint2_linear_1113_20997" x1="24.1346" y1="58.0868" x2="47.6138" y2="58.0868" gradientUnits="userSpaceOnUse">
<stop stop-color="#89272D"/>
<stop offset="0.0267827" stop-color="#95262C"/>
<stop offset="0.1029" stop-color="#B02329"/>
<stop offset="0.1896" stop-color="#C62027"/>
<stop offset="0.2898" stop-color="#D81E26"/>
<stop offset="0.4119" stop-color="#E41D25"/>
<stop offset="0.5791" stop-color="#EB1C24"/>
<stop offset="1" stop-color="#ED1C24"/>
</linearGradient>
</defs>
</svg>
