<svg width="141" height="101" viewBox="0 0 141 101" fill="none" xmlns="http://www.w3.org/2000/svg">
<rect x="0.5" y="0.5" width="140" height="100" rx="12" fill="white"/>
<path d="M105.542 43.4596H104.373V57.8463H105.542V43.4596Z" fill="black"/>
<path d="M80.7389 56.5111C79.9601 56.9565 79.1187 57.2824 78.243 57.4778C77.3766 57.6644 76.4928 57.7586 75.6065 57.759C74.6167 57.773 73.634 57.5908 72.7151 57.2229C71.8672 56.8869 71.1003 56.3747 70.4652 55.7201C69.8311 55.0603 69.3351 54.2804 69.0063 53.4263C68.6473 52.499 68.4683 51.5117 68.479 50.5173C68.4675 49.5258 68.6465 48.5412 69.0063 47.6172C69.3374 46.7668 69.8331 45.9903 70.4652 45.3322C71.1024 44.6779 71.8685 44.1631 72.7151 43.8205C73.6334 43.4497 74.6161 43.2645 75.6065 43.2757C76.5206 43.2365 77.4331 43.3855 78.2872 43.7136C79.1414 44.0417 79.919 44.5417 80.5719 45.1828L79.6316 46.1495C79.4061 45.8876 79.1493 45.6544 78.867 45.4552C78.5545 45.2442 78.2218 45.0646 77.8739 44.9191C77.51 44.7691 77.1335 44.6515 76.749 44.5676C76.3732 44.4885 75.9905 44.4473 75.6065 44.4445C74.7748 44.4342 73.9496 44.5927 73.1809 44.9103C72.4857 45.205 71.86 45.6421 71.3441 46.1934C70.8269 46.7516 70.4292 47.4096 70.1752 48.1269C69.6248 49.673 69.6248 51.3617 70.1752 52.9078C70.4292 53.6251 70.8269 54.2831 71.3441 54.8413C71.86 55.3926 72.4857 55.8297 73.1809 56.1244C73.9496 56.442 74.7748 56.6005 75.6065 56.5902C76.3045 56.5922 77.0015 56.5333 77.6893 56.4144C78.3088 56.307 78.9041 56.0898 79.447 55.7728V51.1413H76.1162V49.9725H80.7038L80.7389 56.5111Z" fill="black"/>
<path d="M88.9657 54.8583C89.2714 55.4093 89.729 55.8608 90.284 56.159C90.8504 56.4545 91.4821 56.6026 92.1208 56.5896C92.5302 56.5941 92.9374 56.5287 93.3248 56.3963C93.6847 56.2629 94.018 56.0665 94.3091 55.8163C94.5898 55.5723 94.8171 55.2731 94.977 54.9374C95.1379 54.5845 95.2189 54.2004 95.2143 53.8125C95.2321 53.3964 95.1282 52.9841 94.9155 52.6261C94.7094 52.3116 94.4325 52.0497 94.107 51.8615C93.7464 51.6471 93.3633 51.4732 92.9645 51.3429L91.6638 50.9123C91.2156 50.7717 90.7849 50.6047 90.3631 50.4289C89.9485 50.2508 89.5633 50.0107 89.2206 49.7171C88.8867 49.4325 88.6145 49.0825 88.4209 48.6888C88.1985 48.1642 88.0936 47.5973 88.1133 47.0278C88.0999 46.488 88.2129 45.9526 88.4433 45.4643C88.6737 44.976 89.0152 44.5483 89.4403 44.2155C89.8656 43.8976 90.345 43.6594 90.8553 43.5124C91.399 43.3453 91.965 43.2624 92.5339 43.2664C93.2502 43.2601 93.9609 43.3944 94.6255 43.6618C95.3067 43.9446 95.8967 44.4099 96.3305 45.0065L95.2231 45.8062C94.9299 45.3794 94.538 45.0297 94.0806 44.7868C93.6009 44.5474 93.0697 44.4297 92.5339 44.444C92.1323 44.4409 91.7325 44.4972 91.3474 44.611C90.9919 44.709 90.658 44.873 90.3631 45.0944C90.0834 45.3111 89.8552 45.5873 89.6952 45.9029C89.5083 46.2491 89.4059 46.6345 89.3964 47.0278C89.3584 47.6038 89.5477 48.1717 89.9237 48.6097C90.291 48.9945 90.7379 49.2944 91.2332 49.4886C91.806 49.7145 92.3932 49.9024 92.9908 50.051C93.5835 50.2065 94.158 50.4245 94.7046 50.7014C95.2296 50.9706 95.6818 51.3625 96.0229 51.8439C96.3988 52.4454 96.5798 53.1482 96.5414 53.8564C96.5548 54.4271 96.4344 54.9929 96.1898 55.5087C95.9687 55.9792 95.6478 56.3961 95.2495 56.7303C94.8439 57.0638 94.3786 57.3173 93.8785 57.4773C93.356 57.6459 92.8104 57.7319 92.2614 57.7321C91.4006 57.7403 90.5465 57.579 89.7479 57.2576C88.9575 56.9146 88.2787 56.3575 87.7881 55.6493L88.9657 54.8583Z" fill="black"/>
<path d="M72.5488 93.5019C64.3587 93.4972 56.3402 91.1538 49.4365 86.7472C42.5329 82.3405 37.0312 76.0541 33.5787 68.6272C30.1262 61.2003 28.8665 52.9419 29.9476 44.8234C31.0288 36.7049 34.4059 29.064 39.6818 22.7995C44.9576 16.535 51.9127 11.9074 59.729 9.46113C67.5453 7.01482 75.8976 6.85152 83.8035 8.99045C91.7094 11.1294 98.8401 15.4816 104.357 21.5351C109.873 27.5886 113.547 35.0916 114.944 43.1616L113.652 43.3901C111.857 33.1094 106.271 23.8757 97.9989 17.5125C89.7268 11.1493 79.3693 8.11921 68.9719 9.0205C58.5745 9.9218 48.8929 14.689 41.8391 22.3807C34.7853 30.0724 30.872 40.1295 30.872 50.5659C30.872 61.0023 34.7853 71.0594 41.8391 78.7511C48.8929 86.4428 58.5745 91.21 68.9719 92.1113C79.3693 93.0126 89.7268 89.9825 97.9989 83.6193C106.271 77.2561 111.857 68.0224 113.652 57.7417L114.944 57.9614C113.177 67.9213 107.96 76.9413 100.208 83.4398C92.4565 89.9383 82.6643 93.5005 72.5488 93.5019Z" fill="black"/>
<path d="M116.428 50.3601C116.428 50.663 116.339 50.959 116.17 51.2106C116.002 51.4623 115.762 51.6583 115.482 51.7738C115.203 51.8892 114.895 51.919 114.598 51.8593C114.301 51.7996 114.028 51.653 113.815 51.4383C113.601 51.2236 113.456 50.9503 113.398 50.6531C113.34 50.3558 113.372 50.0481 113.489 49.7688C113.606 49.4896 113.804 49.2514 114.056 49.0844C114.309 48.9174 114.605 48.8292 114.908 48.831C115.108 48.831 115.307 48.8706 115.492 48.9475C115.677 49.0245 115.845 49.1373 115.986 49.2794C116.128 49.4215 116.239 49.5901 116.315 49.7756C116.391 49.9611 116.43 50.1597 116.428 50.3601Z" fill="black"/>
</svg>
