<svg width="457" height="32" viewBox="0 0 457 32" fill="none" xmlns="http://www.w3.org/2000/svg">
<path d="M12.463 19.6427L14.8993 19.6427C16.9405 19.6427 18.6165 17.9915 18.6165 15.9438C18.6165 13.9197 16.9464 12.2686 14.8993 12.2686L12.463 12.2686C12.3553 12.2686 12.2715 12.3632 12.2715 12.4698L12.2715 19.4415C12.2715 19.548 12.3553 19.6427 12.463 19.6427ZM13.3489 13.2687L14.7436 13.2687C16.3 13.2687 17.4313 14.3932 17.4313 15.9438C17.4313 17.5003 16.3 18.6425 14.7436 18.6425L13.3489 18.6425L13.3489 13.2687Z" fill="white"/>
<path d="M30.4679 19.6432L31.1683 19.6432C31.276 19.6432 31.3718 19.5486 31.3718 19.442L31.3718 12.4644C31.3718 12.3579 31.276 12.2632 31.1683 12.2632L30.4679 12.2632C30.3602 12.2632 30.2644 12.3579 30.2644 12.4644L30.2644 19.4361C30.2644 19.5486 30.3602 19.6432 30.4679 19.6432Z" fill="white"/>
<path d="M42.9005 19.7433L43.5649 19.7433C43.6906 19.7433 43.7684 19.6782 43.8103 19.5835L44.2473 18.6247L48.1441 18.6247C48.2877 18.9443 48.4314 19.2639 48.5751 19.5835C48.605 19.6545 48.6888 19.7433 48.8205 19.7433L49.4849 19.7433C49.6465 19.7433 49.7303 19.6072 49.6645 19.4711L46.7374 13.0912L46.9469 12.6236C46.9649 12.5822 46.9469 12.5349 46.905 12.5171L46.1269 12.1738C46.085 12.1561 46.0371 12.1738 46.0191 12.2153L44.1515 16.3166L42.7149 19.477C42.655 19.6072 42.7389 19.7433 42.9005 19.7433ZM46.1688 14.3518L46.2226 14.3518L47.5156 17.2399L47.749 17.7488L44.6424 17.7488L46.1688 14.3518Z" fill="white"/>
<path d="M62.115 19.7439C63.6474 19.7439 64.7428 19.0515 64.7428 19.0515C64.7847 19.0219 64.8266 18.9331 64.8266 18.8858C64.8266 18.0454 64.8146 17.1813 64.8146 16.335C64.8146 16.2285 64.7308 16.1338 64.6231 16.1338L61.9654 16.1338C61.8516 16.1338 61.7618 16.2167 61.7618 16.335L61.7618 16.9446C61.7618 17.0511 61.8456 17.134 61.9654 17.134L63.7312 17.134L63.7312 18.3117C63.6234 18.3532 63.0249 18.6727 62.1449 18.6727C60.6425 18.6727 59.4872 17.4062 59.4872 15.9444C59.4872 14.4708 60.6425 13.2043 62.1449 13.2043C62.7914 13.2043 63.4498 13.4883 63.9467 13.9204C64.0544 14.0151 64.1382 14.0269 64.222 13.9322C64.3836 13.7665 64.5393 13.6067 64.7009 13.4351C64.7847 13.3522 64.7727 13.222 64.6889 13.1392C63.9706 12.5296 63.1326 12.1567 62.115 12.1567C60.008 12.1567 58.302 13.8553 58.302 15.9622C58.308 18.0691 60.008 19.7439 62.115 19.7439Z" fill="white"/>
<path d="M76.9363 19.7439C79.0553 19.7439 80.7493 18.0691 80.7493 15.9622C80.7493 13.8553 79.0553 12.1567 76.9363 12.1567C74.8173 12.1567 73.1353 13.8553 73.1353 15.9622C73.1353 18.0691 74.8173 19.7439 76.9363 19.7439ZM76.9363 13.2161C78.4507 13.2161 79.6898 14.4708 79.6898 15.9681C79.6898 17.4713 78.4507 18.6964 76.9363 18.6964C75.4338 18.6964 74.1948 17.4713 74.1948 15.9681C74.1948 14.4708 75.4338 13.2161 76.9363 13.2161Z" fill="white"/>
<path d="M89.393 19.7076L90.0694 19.7076C90.1891 19.7076 90.2729 19.6129 90.2729 19.5064L90.2729 14.2865L90.2849 14.2865L94.9598 19.8201L95.2412 19.8201C95.3489 19.8201 95.4447 19.7372 95.4447 19.6248L95.4447 12.4045C95.4447 12.298 95.3489 12.2033 95.2412 12.2033L94.5528 12.2033C94.4331 12.2033 94.3493 12.298 94.3493 12.4045L94.3493 17.4764L94.3373 17.4764L89.6623 12.0908L89.393 12.0908C89.2852 12.0908 89.1895 12.1737 89.1895 12.2861L89.1895 19.5005C89.1895 19.607 89.2852 19.7076 89.393 19.7076Z" fill="white"/>
<path d="M104.399 19.7436L105.064 19.7436C105.19 19.7436 105.267 19.6785 105.309 19.5838L105.746 18.625L109.643 18.625C109.787 18.9446 109.93 19.2642 110.074 19.5838C110.104 19.6548 110.188 19.7436 110.319 19.7436L110.984 19.7436C111.146 19.7436 111.229 19.6075 111.163 19.4714L108.236 13.0856L108.446 12.618C108.464 12.5766 108.446 12.5292 108.404 12.5115L107.626 12.1682C107.584 12.1505 107.536 12.1682 107.518 12.2097L104.998 17.7491L104.998 17.7551L104.22 19.4714C104.16 19.6075 104.244 19.7436 104.399 19.7436ZM106.369 17.2402L107.674 14.3521L107.728 14.3521L109.021 17.2402L109.254 17.7491L106.147 17.7491L106.369 17.2402Z" fill="white"/>
<path d="M121.184 19.8141L124.955 19.8141C125.069 19.8141 125.159 19.7194 125.159 19.6129L125.159 19.0329C125.159 18.9264 125.075 18.8317 124.955 18.8317L122.088 18.8317L122.088 12.292C122.088 12.1855 121.992 12.0908 121.885 12.0908L121.184 12.0908C121.07 12.0908 120.981 12.1855 120.981 12.292L120.981 19.6129C120.981 19.7194 121.07 19.8141 121.184 19.8141Z" fill="white"/>
<path d="M0 5.55127L5.11304e-09 26.2888L168.323 26.2888L168.323 5.55127L0 5.55127ZM167.227 25.2058L1.08943 25.2058L1.08943 6.64023L167.227 6.64023L167.227 25.2058Z" fill="white"/>
<path d="M153.412 3.47402L133.647 32L128.583 28.5319L148.348 4.77009e-09L153.412 3.47402Z" fill="#FFB71B"/>
<path d="M151.143 19.8148L155.465 19.8148C155.579 19.8148 155.674 19.7142 155.674 19.6018L155.674 19.0691C155.674 18.9567 155.573 18.8561 155.465 18.8561L152.616 18.8561C153.274 18.1104 154.058 17.199 154.651 16.4888C155.255 15.7667 155.722 15.1749 155.722 14.3227C155.722 13.1568 154.872 12.1448 153.274 12.1448C151.945 12.1448 151.107 13.2337 151.107 13.2337C151.029 13.3225 151.053 13.4586 151.119 13.5237L151.496 13.9025C151.586 13.9913 151.706 13.9913 151.795 13.9025C152.095 13.5829 152.598 13.1568 153.214 13.1568C154.196 13.1568 154.591 13.8019 154.591 14.37C154.591 14.8139 154.298 15.3702 153.741 15.9916C152.915 16.9682 151.754 18.3826 150.927 19.3177L150.927 19.6077C150.927 19.7142 151.017 19.8148 151.143 19.8148Z" fill="white"/>
<path d="M231.302 12.8306C231.302 12.7276 231.39 12.6326 231.502 12.6326L234.538 12.6326C235.812 12.6326 236.854 13.6148 236.854 14.8346C236.854 15.7772 236.205 16.5455 235.283 16.902L236.742 19.5C236.814 19.6347 236.742 19.7931 236.557 19.7931L235.444 19.7931C235.348 19.7931 235.291 19.7456 235.275 19.6981L233.865 16.9891L232.68 16.9891L232.68 19.603C232.68 19.706 232.584 19.801 232.479 19.801L231.502 19.801C231.39 19.801 231.302 19.706 231.302 19.603L231.302 12.8306ZM234.426 15.896C234.987 15.896 235.476 15.4287 235.476 14.8504C235.476 14.3118 234.987 13.8603 234.426 13.8603L232.696 13.8603L232.696 15.896L234.426 15.896Z" fill="white"/>
<path d="M244.753 12.8306C244.753 12.7276 244.841 12.6326 244.953 12.6326L249.279 12.6326C249.4 12.6326 249.48 12.7276 249.48 12.8306L249.48 13.6702C249.48 13.7732 249.392 13.8682 249.279 13.8682L246.131 13.8682L246.131 15.5475L248.759 15.5475C248.863 15.5475 248.959 15.6425 248.959 15.7455L248.959 16.593C248.959 16.7039 248.863 16.7911 248.759 16.7911L246.131 16.7911L246.131 18.5812L249.279 18.5812C249.4 18.5812 249.48 18.6762 249.48 18.7792L249.48 19.6188C249.48 19.7218 249.392 19.8169 249.279 19.8169L244.953 19.8169C244.833 19.8169 244.753 19.7218 244.753 19.6188L244.753 12.8306Z" fill="white"/>
<path d="M256.411 19.5314L259.711 12.6402C259.743 12.5768 259.799 12.5293 259.896 12.5293L260 12.5293C260.104 12.5293 260.152 12.5768 260.184 12.6402L263.461 19.5314C263.525 19.6661 263.437 19.8007 263.276 19.8007L262.355 19.8007C262.195 19.8007 262.123 19.7374 262.051 19.5948L261.53 18.4858L258.349 18.4858L257.829 19.5948C257.789 19.6977 257.692 19.8007 257.524 19.8007L256.603 19.8007C256.435 19.8007 256.347 19.6661 256.411 19.5314ZM261.001 17.3531L259.936 15.1036L259.904 15.1036L258.862 17.3531L261.001 17.3531Z" fill="white"/>
<path d="M270.799 12.8306C270.799 12.7276 270.887 12.6326 270.999 12.6326L271.976 12.6326C272.08 12.6326 272.177 12.7276 272.177 12.8306L272.177 18.5733L274.884 18.5733C275.005 18.5733 275.085 18.6683 275.085 18.7713L275.085 19.6109C275.085 19.7139 274.997 19.8089 274.884 19.8089L270.999 19.8089C270.879 19.8089 270.799 19.7139 270.799 19.6109L270.799 12.8306Z" fill="white"/>
<path d="M291.268 12.8306C291.268 12.7276 291.356 12.6326 291.468 12.6326L295.794 12.6326C295.914 12.6326 295.994 12.7276 295.994 12.8306L295.994 13.6702C295.994 13.7732 295.906 13.8682 295.794 13.8682L292.646 13.8682L292.646 15.5475L295.273 15.5475C295.377 15.5475 295.474 15.6425 295.474 15.7455L295.474 16.593C295.474 16.7039 295.377 16.7911 295.273 16.7911L292.646 16.7911L292.646 18.5812L295.794 18.5812C295.914 18.5812 295.994 18.6762 295.994 18.7792L295.994 19.6188C295.994 19.7218 295.906 19.8169 295.794 19.8169L291.468 19.8169C291.348 19.8169 291.268 19.7218 291.268 19.6188L291.268 12.8306Z" fill="white"/>
<path d="M303.461 18.7948L303.846 18.1611C303.934 18.0185 304.11 18.0185 304.206 18.0898C304.262 18.1215 305.119 18.7235 305.808 18.7235C306.361 18.7235 306.778 18.375 306.778 17.9314C306.778 17.4086 306.321 17.0522 305.432 16.7036C304.43 16.3155 303.437 15.6977 303.437 14.4937C303.437 13.5828 304.142 12.5293 305.824 12.5293C306.906 12.5293 307.739 13.06 307.947 13.2184C308.052 13.2818 308.084 13.456 308.011 13.559L307.611 14.1452C307.523 14.264 307.363 14.3511 307.242 14.264C307.154 14.2165 306.353 13.7016 305.768 13.7016C305.159 13.7016 304.831 14.0897 304.831 14.4145C304.831 14.8977 305.223 15.2224 306.089 15.563C307.122 15.9591 308.308 16.5531 308.308 17.8759C308.308 18.9294 307.363 19.9037 305.864 19.9037C304.526 19.9037 303.741 19.3017 303.525 19.1037C303.413 19.0086 303.365 18.9611 303.461 18.7948Z" fill="white"/>
<path d="M317.032 13.8597L315.406 13.8597C315.286 13.8597 315.206 13.7646 315.206 13.6617L315.206 12.822C315.206 12.7191 315.294 12.624 315.406 12.624L320.053 12.624C320.173 12.624 320.253 12.7191 320.253 12.822L320.253 13.6617C320.253 13.7646 320.165 13.8597 320.053 13.8597L318.426 13.8597L318.426 19.6024C318.426 19.7053 318.33 19.8004 318.226 19.8004L317.241 19.8004C317.137 19.8004 317.04 19.7053 317.04 19.6024L317.04 13.8597L317.032 13.8597Z" fill="white"/>
<path d="M326.357 19.5314L329.658 12.6402C329.69 12.5768 329.746 12.5293 329.842 12.5293L329.946 12.5293C330.05 12.5293 330.098 12.5768 330.131 12.6402L333.407 19.5314C333.471 19.6661 333.383 19.8007 333.223 19.8007L332.302 19.8007C332.141 19.8007 332.069 19.7374 331.997 19.5948L331.476 18.4858L328.296 18.4858L327.775 19.5948C327.735 19.6977 327.639 19.8007 327.471 19.8007L326.549 19.8007C326.381 19.8007 326.293 19.6661 326.357 19.5314ZM330.948 17.3531L329.882 15.1036L329.85 15.1036L328.809 17.3531L330.948 17.3531Z" fill="white"/>
<path d="M341.355 13.8597L339.729 13.8597C339.609 13.8597 339.529 13.7646 339.529 13.6617L339.529 12.822C339.529 12.7191 339.617 12.624 339.729 12.624L344.375 12.624C344.496 12.624 344.576 12.7191 344.576 12.822L344.576 13.6617C344.576 13.7646 344.488 13.8597 344.375 13.8597L342.749 13.8597L342.749 19.6024C342.749 19.7053 342.653 19.8004 342.549 19.8004L341.563 19.8004C341.459 19.8004 341.363 19.7053 341.363 19.6024L341.363 13.8597L341.355 13.8597Z" fill="white"/>
<path d="M352.059 12.8308C352.059 12.7279 352.147 12.6328 352.259 12.6328L356.585 12.6328C356.705 12.6328 356.785 12.7279 356.785 12.8308L356.785 13.6705C356.785 13.7734 356.697 13.8685 356.585 13.8685L353.437 13.8685L353.437 15.5477L356.064 15.5477C356.168 15.5477 356.265 15.6428 356.265 15.7457L356.265 16.5933C356.265 16.7042 356.168 16.7913 356.064 16.7913L353.437 16.7913L353.437 18.5814L356.585 18.5814C356.705 18.5814 356.785 18.6765 356.785 18.7795L356.785 19.6191C356.785 19.7221 356.697 19.8171 356.585 19.8171L352.259 19.8171C352.139 19.8171 352.059 19.7221 352.059 19.6191L352.059 12.8308Z" fill="white"/>
<path d="M373.401 12.8308C373.401 12.7279 373.489 12.6328 373.601 12.6328L376.101 12.6328C377.407 12.6328 378.48 13.6546 378.48 14.8982C378.48 16.1656 377.407 17.2032 376.109 17.2032L374.779 17.2032L374.779 19.6112C374.779 19.7141 374.683 19.8092 374.579 19.8092L373.601 19.8092C373.481 19.8092 373.401 19.7141 373.401 19.6112L373.401 12.8308ZM376.021 15.9517C376.613 15.9517 377.118 15.4923 377.118 14.8903C377.118 14.3279 376.621 13.9002 376.021 13.9002L374.787 13.9002L374.787 15.9596L376.021 15.9596L376.021 15.9517Z" fill="white"/>
<path d="M384.689 19.5314L387.99 12.6402C388.022 12.5768 388.078 12.5293 388.174 12.5293L388.278 12.5293C388.382 12.5293 388.43 12.5768 388.462 12.6402L391.739 19.5314C391.803 19.6661 391.715 19.8007 391.555 19.8007L390.633 19.8007C390.473 19.8007 390.401 19.7374 390.329 19.5948L389.808 18.4858L386.628 18.4858L386.107 19.5948C386.067 19.6977 385.971 19.8007 385.803 19.8007L384.881 19.8007C384.713 19.8007 384.625 19.6661 384.689 19.5314ZM389.28 17.3531L388.214 15.1036L388.182 15.1036L387.14 17.3531L389.28 17.3531Z" fill="white"/>
<path d="M399.077 12.8306C399.077 12.7276 399.165 12.6326 399.277 12.6326L402.314 12.6326C403.588 12.6326 404.629 13.6148 404.629 14.8346C404.629 15.7772 403.98 16.5455 403.059 16.902L404.517 19.5C404.589 19.6347 404.517 19.7931 404.333 19.7931L403.219 19.7931C403.123 19.7931 403.067 19.7456 403.051 19.6981L401.641 16.9891L400.463 16.9891L400.463 19.603C400.463 19.706 400.367 19.801 400.263 19.801L399.285 19.801C399.165 19.801 399.085 19.706 399.085 19.603L399.085 12.8306L399.077 12.8306ZM402.202 15.896C402.762 15.896 403.251 15.4287 403.251 14.8504C403.251 14.3118 402.762 13.8603 402.202 13.8603L400.471 13.8603L400.471 15.896L402.202 15.896Z" fill="white"/>
<path d="M413.53 13.8597L411.903 13.8597C411.783 13.8597 411.703 13.7646 411.703 13.6617L411.703 12.822C411.703 12.7191 411.791 12.624 411.903 12.624L416.55 12.624C416.67 12.624 416.75 12.7191 416.75 12.822L416.75 13.6617C416.75 13.7646 416.662 13.8597 416.55 13.8597L414.923 13.8597L414.923 19.6024C414.923 19.7053 414.827 19.8004 414.723 19.8004L413.738 19.8004C413.634 19.8004 413.538 19.7053 413.538 19.6024L413.538 13.8597L413.53 13.8597Z" fill="white"/>
<path d="M424.233 12.7115C424.233 12.6085 424.33 12.5293 424.434 12.5293L424.698 12.5293L429.12 17.0522L429.128 17.0522L429.128 12.8224C429.128 12.7194 429.217 12.6244 429.329 12.6244L430.306 12.6244C430.41 12.6244 430.506 12.7194 430.506 12.8224L430.506 19.7136C430.506 19.8166 430.41 19.8958 430.306 19.8958L430.05 19.8958L425.611 15.1987L425.603 15.1987L425.603 19.6027C425.603 19.7057 425.515 19.8007 425.403 19.8007L424.434 19.8007C424.33 19.8007 424.233 19.7057 424.233 19.6027L424.233 12.7115Z" fill="white"/>
<path d="M438.822 12.8306C438.822 12.7276 438.91 12.6326 439.022 12.6326L443.348 12.6326C443.468 12.6326 443.549 12.7276 443.549 12.8306L443.549 13.6702C443.549 13.7732 443.46 13.8682 443.348 13.8682L440.2 13.8682L440.2 15.5475L442.827 15.5475C442.932 15.5475 443.028 15.6425 443.028 15.7455L443.028 16.593C443.028 16.7039 442.932 16.7911 442.827 16.7911L440.2 16.7911L440.2 18.5812L443.348 18.5812C443.468 18.5812 443.549 18.6762 443.549 18.7792L443.549 19.6188C443.549 19.7218 443.46 19.8169 443.348 19.8169L439.022 19.8169C438.902 19.8169 438.822 19.7218 438.822 19.6188L438.822 12.8306Z" fill="white"/>
<path d="M451.448 12.8306C451.448 12.7276 451.536 12.6326 451.648 12.6326L454.685 12.6326C455.958 12.6326 457 13.6148 457 14.8346C457 15.7772 456.351 16.5455 455.43 16.902L456.888 19.5C456.96 19.6347 456.888 19.7931 456.703 19.7931L455.59 19.7931C455.494 19.7931 455.438 19.7456 455.422 19.6981L454.012 16.9891L452.834 16.9891L452.834 19.603C452.834 19.706 452.738 19.801 452.634 19.801L451.656 19.801C451.536 19.801 451.456 19.706 451.456 19.603L451.456 12.8306L451.448 12.8306ZM454.572 15.896C455.133 15.896 455.622 15.4287 455.622 14.8504C455.622 14.3118 455.133 13.8603 454.572 13.8603L452.842 13.8603L452.842 15.896L454.572 15.896Z" fill="white"/>
<line x1="199.405" y1="29.0679" x2="199.405" y2="3.00707" stroke="url(#paint0_linear_1149_43226)" stroke-width="0.5"/>
<defs>
<linearGradient id="paint0_linear_1149_43226" x1="199.655" y1="3.00707" x2="199.655" y2="29.0679" gradientUnits="userSpaceOnUse">
<stop offset="0.0104167" stop-color="white" stop-opacity="0"/>
<stop offset="0.494792" stop-color="white"/>
<stop offset="1" stop-color="white" stop-opacity="0"/>
</linearGradient>
</defs>
</svg>
