<svg width="26" height="25" viewBox="0 0 26 25" fill="none" xmlns="http://www.w3.org/2000/svg">
<path d="M10.7846 9.80978H8.52787V11.6133H10.6446C11.0109 11.6133 11.3335 11.4914 11.3335 10.65C11.3335 9.80978 10.7846 9.80978 10.7846 9.80978Z" fill="#8B8E98"/>
<path d="M8.52787 15.0184H10.6702C10.9915 15.0115 11.6023 14.9134 11.6023 13.9682C11.6023 12.8473 10.7846 12.8586 10.7846 12.8586H8.52787V15.0184Z" fill="#8B8E98"/>
<path d="M15.1993 12.8586H17.7461C17.7461 12.8586 17.7611 11.6133 16.5633 11.6133C15.3656 11.6133 15.1993 12.8586 15.1993 12.8586Z" fill="#8B8E98"/>
<path fill-rule="evenodd" clip-rule="evenodd" d="M13 25C19.9036 25 25.5 19.4036 25.5 12.5C25.5 5.59644 19.9036 0 13 0C6.09644 0 0.5 5.59644 0.5 12.5C0.5 19.4036 6.09644 25 13 25ZM12.9788 10.5256C12.9788 11.9709 11.7961 12.0628 11.7961 12.0628C13.324 12.0628 13.2513 13.9894 13.2483 14.067L13.2482 14.0694C13.2482 16.5356 10.7846 16.4549 10.7846 16.4549H6.75V8.37448H10.7846C12.0111 8.37448 12.9788 9.07838 12.9788 10.5256ZM13.5527 13.5343C13.5527 13.5343 13.5502 10.4293 16.5327 10.4293C19.6715 10.4293 19.2283 13.9375 19.2283 13.9375H15.213C15.213 15.4391 16.5783 15.3441 16.5783 15.3441C17.8661 15.3441 17.8211 14.4745 17.8211 14.4745H19.1851C19.1851 16.7819 16.5327 16.6231 16.5327 16.6231C13.3489 16.6231 13.5527 13.5343 13.5527 13.5343ZM14.8642 8.84896H18.063V9.84542H14.8642V8.84896Z" fill="#8B8E98"/>
<rect x="5.5" y="4" width="15" height="17" fill="#8B8E98"/>
<path d="M13.4425 7C11.8286 7 11.6263 7.00685 10.9924 7.03575C10.3599 7.06461 9.92794 7.16508 9.54993 7.31196C9.15916 7.46382 8.82776 7.66703 8.4974 7.99739C8.16703 8.32774 7.96382 8.65918 7.81198 9.04995C7.66506 9.42794 7.56463 9.85991 7.53574 10.4924C7.50683 11.1263 7.5 11.3286 7.5 12.9425C7.5 14.5564 7.50683 14.7588 7.53574 15.3926C7.56463 16.0251 7.66506 16.4571 7.81198 16.8351C7.96384 17.2259 8.16705 17.5573 8.4974 17.8877C8.82778 18.218 9.15916 18.4212 9.54993 18.5731C9.92794 18.72 10.3599 18.8204 10.9924 18.8493C11.6263 18.8782 11.8286 18.8851 13.4425 18.8851C15.0564 18.8851 15.2588 18.8782 15.8926 18.8493C16.5251 18.8204 16.9571 18.72 17.3351 18.5731C17.7259 18.4212 18.0573 18.218 18.3877 17.8877C18.718 17.5573 18.9212 17.2259 19.0731 16.8351C19.22 16.4571 19.3204 16.0251 19.3493 15.3926C19.3782 14.7588 19.3851 14.5564 19.3851 12.9425C19.3851 11.3286 19.3782 11.1263 19.3493 10.4924C19.3204 9.85991 19.22 9.42794 19.0731 9.04995C18.9212 8.65918 18.718 8.32774 18.3877 7.99739C18.0573 7.66703 17.7259 7.46382 17.3351 7.31196C16.9571 7.16508 16.5251 7.06461 15.8926 7.03575C15.2588 7.00685 15.0564 7 13.4425 7ZM13.4425 8.07072C15.0292 8.07072 15.2172 8.07679 15.8438 8.10538C16.4232 8.13179 16.7379 8.2286 16.9473 8.30998C17.2247 8.41779 17.4226 8.54655 17.6305 8.7545C17.8385 8.96245 17.9673 9.16042 18.0751 9.43779C18.1565 9.64719 18.2533 9.96185 18.2797 10.5412C18.3083 11.1679 18.3143 11.3558 18.3143 12.9425C18.3143 14.5292 18.3083 14.7172 18.2797 15.3438C18.2533 15.9232 18.1565 16.2379 18.0751 16.4473C17.9673 16.7247 17.8385 16.9226 17.6305 17.1305C17.4226 17.3385 17.2246 17.4673 16.9473 17.5751C16.7379 17.6565 16.4232 17.7533 15.8438 17.7797C15.2173 17.8083 15.0294 17.8143 13.4425 17.8143C11.8557 17.8143 11.6678 17.8083 11.0412 17.7797C10.4618 17.7533 10.1472 17.6565 9.93781 17.5751C9.6604 17.4673 9.46245 17.3385 9.25452 17.1305C9.04657 16.9226 8.91779 16.7246 8.80998 16.4473C8.7286 16.2379 8.63181 15.9232 8.60538 15.3438C8.57679 14.7172 8.57072 14.5292 8.57072 12.9425C8.57072 11.3558 8.57679 11.1679 8.60538 10.5412C8.63181 9.96183 8.7286 9.64719 8.80998 9.43781C8.91779 9.1604 9.04657 8.96245 9.2545 8.75452C9.46245 8.54655 9.66042 8.41779 9.93779 8.30998C10.1472 8.2286 10.4619 8.13179 11.0412 8.10538C11.6679 8.07679 11.8558 8.07072 13.4425 8.07072" fill="#080C15"/>
<path d="M13.4425 14.9235C12.3484 14.9235 11.4616 14.0366 11.4616 12.9426C11.4616 11.8486 12.3484 10.9618 13.4425 10.9618C14.5364 10.9618 15.4233 11.8486 15.4233 12.9426C15.4233 14.0366 14.5364 14.9235 13.4425 14.9235ZM13.4425 9.89106C11.7571 9.89106 10.3909 11.2573 10.3909 12.9426C10.3909 14.628 11.7571 15.9942 13.4425 15.9942C15.1278 15.9942 16.494 14.628 16.494 12.9426C16.494 11.2573 15.1278 9.89106 13.4425 9.89106V9.89106ZM17.3277 9.77049C17.3277 10.1643 17.0084 10.4836 16.6146 10.4836C16.2208 10.4836 15.9015 10.1643 15.9015 9.77049C15.9015 9.37665 16.2208 9.05737 16.6146 9.05737C17.0084 9.05737 17.3277 9.37665 17.3277 9.77049" fill="#080C15"/>
</svg>
