<svg width="26" height="25" viewBox="0 0 26 25" fill="none" xmlns="http://www.w3.org/2000/svg">
<path d="M13.0005 0.5C6.37299 0.5 1.00049 5.8725 1.00049 12.5C1.00049 19.1275 6.37299 24.5 13.0005 24.5C19.628 24.5 25.0005 19.1275 25.0005 12.5C25.0005 5.8725 19.628 0.5 13.0005 0.5ZM10.063 17.4738H7.63299V9.65375H10.063V17.4738ZM8.83299 8.69375C8.06549 8.69375 7.56924 8.15 7.56924 7.4775C7.56924 6.79125 8.08049 6.26375 8.86424 6.26375C9.64799 6.26375 10.128 6.79125 10.143 7.4775C10.143 8.15 9.64799 8.69375 8.83299 8.69375ZM18.938 17.4738H16.508V13.14C16.508 12.1313 16.1555 11.4462 15.2767 11.4462C14.6055 11.4462 14.2067 11.91 14.0305 12.3563C13.9655 12.515 13.9492 12.74 13.9492 12.9638V17.4725H11.518V12.1475C11.518 11.1713 11.4867 10.355 11.4542 9.6525H13.5655L13.6767 10.7387H13.7255C14.0455 10.2287 14.8292 9.47625 16.1405 9.47625C17.7392 9.47625 18.938 10.5475 18.938 12.85V17.4738V17.4738Z" fill="#8B8E98"/>
</svg>
