<svg width="26" height="25" viewBox="0 0 26 25" fill="none" xmlns="http://www.w3.org/2000/svg">
<path d="M13.0005 0.5C6.37299 0.5 1.00049 5.8725 1.00049 12.5C1.00049 19.1275 6.37299 24.5 13.0005 24.5C19.628 24.5 25.0005 19.1275 25.0005 12.5C25.0005 5.8725 19.628 0.5 13.0005 0.5ZM15.843 8.7925H14.0392C13.8255 8.7925 13.588 9.07375 13.588 9.4475V10.75H15.8442L15.503 12.6075H13.588V18.1838H11.4592V12.6075H9.52799V10.75H11.4592V9.6575C11.4592 8.09 12.5467 6.81625 14.0392 6.81625H15.843V8.7925V8.7925Z" fill="#8B8E98"/>
<rect x="7.5" y="3" width="11" height="17" fill="#8B8E98"/>
<path d="M7.5 17.9391L8.33949 14.8735C7.82166 13.9763 7.54928 12.9585 7.54966 11.9158C7.55099 8.65385 10.2055 6 13.4674 6C15.0503 6.00067 16.5361 6.61677 17.6534 7.73502C18.7706 8.85326 19.3856 10.3397 19.3851 11.9206C19.3836 15.1825 16.7287 17.8367 13.4674 17.8367C13.4672 17.8367 13.4675 17.8367 13.4674 17.8367H13.4648C12.4745 17.8363 11.5014 17.5879 10.6371 17.1165L7.5 17.9391ZM10.7823 16.0455L10.9621 16.152C11.7171 16.6001 12.5827 16.8371 13.4655 16.8376H13.4674C16.1783 16.8376 18.3847 14.6315 18.3858 11.9202C18.3863 10.6063 17.8752 9.37071 16.9466 8.44132C16.0179 7.51192 14.7831 6.9998 13.4692 6.99923C10.7562 6.99923 8.54984 9.20498 8.5488 11.9162C8.54842 12.8453 8.80833 13.7501 9.30076 14.533L9.41778 14.7191L8.92078 16.5336L10.7823 16.0455Z" fill="#080C15"/>
<path fill-rule="evenodd" clip-rule="evenodd" d="M11.9884 9.44256C11.8777 9.19634 11.7611 9.1914 11.6557 9.18712C11.5695 9.18341 11.4708 9.1836 11.3723 9.1836C11.2738 9.1836 11.1136 9.2207 10.9781 9.36864C10.8425 9.51658 10.4604 9.8743 10.4604 10.6018C10.4604 11.3294 10.9904 12.0324 11.0643 12.1312C11.1382 12.2298 12.0872 13.7705 13.5901 14.3632C14.8391 14.8558 15.0932 14.7578 15.3644 14.7332C15.6355 14.7085 16.2392 14.3755 16.3624 14.0302C16.4857 13.6849 16.4857 13.3891 16.4487 13.3271C16.4117 13.2656 16.3131 13.2286 16.1653 13.1547C16.0174 13.0807 15.2905 12.7229 15.1549 12.6736C15.0193 12.6243 14.9208 12.5997 14.8222 12.7477C14.7235 12.8956 14.4404 13.2286 14.3541 13.3271C14.2678 13.426 14.1815 13.4384 14.0337 13.3643C13.8859 13.2902 13.4096 13.1342 12.8447 12.6304C12.4051 12.2386 12.1083 11.7545 12.022 11.6065C11.9358 11.4586 12.0206 11.3856 12.087 11.3048C12.2066 11.1593 12.4072 10.8978 12.4565 10.7992C12.5058 10.7005 12.4812 10.6142 12.4442 10.5402C12.4072 10.4662 12.1198 9.73501 11.9884 9.44256V9.44256Z" fill="#080C15"/>
</svg>
