<svg width="462" height="32" viewBox="0 0 462 32" fill="none" xmlns="http://www.w3.org/2000/svg">
<path d="M22.5266 19.2787L24.8776 19.2787C26.8473 19.2787 28.4647 17.6791 28.4647 15.6954C28.4647 13.7346 26.8531 12.135 24.8776 12.135L22.5266 12.135C22.4227 12.135 22.3418 12.2267 22.3418 12.3299L22.3418 19.0838C22.3418 19.187 22.4227 19.2787 22.5266 19.2787ZM23.3815 13.1039L24.7274 13.1039C26.2292 13.1039 27.321 14.1933 27.321 15.6954C27.321 17.2033 26.2292 18.3098 24.7274 18.3098L23.3815 18.3098L23.3815 13.1039Z" fill="white"/>
<path d="M39.9012 19.2793L40.5771 19.2793C40.681 19.2793 40.7734 19.1876 40.7734 19.0844L40.7734 12.3248C40.7734 12.2216 40.681 12.1299 40.5771 12.1299L39.9012 12.1299C39.7973 12.1299 39.7048 12.2216 39.7048 12.3248L39.7048 19.0787C39.7048 19.1876 39.7973 19.2793 39.9012 19.2793Z" fill="white"/>
<path d="M51.8984 19.3762L52.5396 19.3762C52.6609 19.3762 52.736 19.3131 52.7764 19.2214L53.1981 18.2926L56.9585 18.2926C57.0971 18.6022 57.2357 18.9118 57.3744 19.2214C57.4032 19.2902 57.4841 19.3762 57.6112 19.3762L58.2524 19.3762C58.4083 19.3762 58.4892 19.2443 58.4256 19.1124L55.601 12.9319L55.8032 12.479C55.8205 12.4389 55.8032 12.393 55.7628 12.3758L55.0118 12.0433C54.9714 12.0261 54.9252 12.0433 54.9079 12.0834L53.1057 16.0566L51.7194 19.1182C51.6616 19.2443 51.7425 19.3762 51.8984 19.3762ZM55.0523 14.1531L55.1043 14.1531L56.3519 16.951L56.5772 17.444L53.5793 17.444L55.0523 14.1531Z" fill="white"/>
<path d="M70.4402 19.377C71.919 19.377 72.976 18.7062 72.976 18.7062C73.0165 18.6775 73.0569 18.5915 73.0569 18.5456C73.0569 17.7315 73.0454 16.8944 73.0454 16.0746C73.0454 15.9714 72.9645 15.8796 72.8605 15.8796L70.2958 15.8796C70.1861 15.8796 70.0994 15.9599 70.0994 16.0746L70.0994 16.6651C70.0994 16.7683 70.1803 16.8486 70.2958 16.8486L71.9998 16.8486L71.9998 17.9895C71.8959 18.0296 71.3182 18.3392 70.4691 18.3392C69.0193 18.3392 67.9045 17.1123 67.9045 15.6962C67.9045 14.2686 69.0193 13.0417 70.4691 13.0417C71.093 13.0417 71.7284 13.3169 72.2078 13.7354C72.3118 13.8271 72.3926 13.8386 72.4735 13.7468C72.6295 13.5863 72.7796 13.4315 72.9356 13.2653C73.0165 13.185 73.0049 13.0589 72.9241 12.9786C72.2309 12.3881 71.4222 12.0269 70.4402 12.0269C68.407 12.0269 66.7607 13.6723 66.7607 15.7134C66.7665 17.7544 68.407 19.377 70.4402 19.377Z" fill="white"/>
<path d="M84.7427 19.377C86.7875 19.377 88.4222 17.7544 88.4222 15.7134C88.4222 13.6723 86.7875 12.0269 84.7427 12.0269C82.6979 12.0269 81.0747 13.6723 81.0747 15.7134C81.0747 17.7544 82.6979 19.377 84.7427 19.377ZM84.7427 13.0531C86.2041 13.0531 87.3998 14.2686 87.3998 15.7191C87.3998 17.1754 86.2041 18.3622 84.7427 18.3622C83.2928 18.3622 82.0971 17.1754 82.0971 15.7191C82.0971 14.2686 83.2928 13.0531 84.7427 13.0531Z" fill="white"/>
<path d="M96.7633 19.3417L97.416 19.3417C97.5315 19.3417 97.6124 19.2499 97.6124 19.1467L97.6124 14.0899L97.624 14.0899L102.135 19.4506L102.407 19.4506C102.511 19.4506 102.603 19.3703 102.603 19.2614L102.603 12.2668C102.603 12.1636 102.511 12.0718 102.407 12.0718L101.742 12.0718C101.627 12.0718 101.546 12.1636 101.546 12.2668L101.546 17.1802L101.535 17.1802L97.0232 11.9629L96.7633 11.9629C96.6593 11.9629 96.5669 12.0432 96.5669 12.1521L96.5669 19.141C96.5669 19.2442 96.6593 19.3417 96.7633 19.3417Z" fill="white"/>
<path d="M111.245 19.3768L111.886 19.3768C112.007 19.3768 112.082 19.3137 112.123 19.222L112.544 18.2932L116.305 18.2932C116.443 18.6028 116.582 18.9124 116.72 19.222C116.749 19.2908 116.83 19.3768 116.957 19.3768L117.598 19.3768C117.754 19.3768 117.835 19.2449 117.772 19.113L114.947 12.9268L115.149 12.4739C115.167 12.4337 115.149 12.3879 115.109 12.3707L114.358 12.0381C114.318 12.0209 114.271 12.0381 114.254 12.0783L111.822 17.4446L111.822 17.4504L111.071 19.113C111.013 19.2449 111.094 19.3768 111.245 19.3768ZM113.145 16.9516L114.404 14.1537L114.456 14.1537L115.704 16.9516L115.929 17.4446L112.931 17.4446L113.145 16.9516Z" fill="white"/>
<path d="M127.442 19.4449L131.081 19.4449C131.19 19.4449 131.277 19.3531 131.277 19.2499L131.277 18.6881C131.277 18.5849 131.196 18.4931 131.081 18.4931L128.314 18.4931L128.314 12.1578C128.314 12.0546 128.221 11.9629 128.117 11.9629L127.442 11.9629C127.332 11.9629 127.245 12.0546 127.245 12.1578L127.245 19.2499C127.245 19.3531 127.332 19.4449 127.442 19.4449Z" fill="white"/>
<path d="M10.5 5.62769L10.5 25.7172L172.93 25.7172L172.93 5.62769L10.5 5.62769ZM171.872 24.668L11.5513 24.668L11.5513 6.68261L171.872 6.68261L171.872 24.668Z" fill="white"/>
<path d="M158.541 3.61545L139.468 31.25L134.581 27.8903L153.654 0.25L158.541 3.61545Z" fill="#FFB71B"/>
<path d="M156.351 19.4457L160.522 19.4457C160.631 19.4457 160.724 19.3483 160.724 19.2393L160.724 18.7234C160.724 18.6144 160.626 18.517 160.522 18.517L157.772 18.517C158.408 17.7946 159.164 16.9116 159.736 16.2236C160.32 15.5242 160.77 14.9508 160.77 14.1252C160.77 12.9958 159.95 12.0154 158.408 12.0154C157.125 12.0154 156.317 13.0703 156.317 13.0703C156.242 13.1563 156.265 13.2882 156.328 13.3512L156.692 13.7182C156.779 13.8042 156.894 13.8042 156.981 13.7182C157.27 13.4086 157.755 12.9958 158.35 12.9958C159.297 12.9958 159.678 13.6207 159.678 14.1711C159.678 14.6011 159.395 15.14 158.858 15.742C158.061 16.688 156.94 18.0583 156.143 18.9642L156.143 19.2451C156.143 19.3483 156.23 19.4457 156.351 19.4457Z" fill="white"/>
<path d="M233.704 12.6796C233.704 12.5799 233.789 12.4878 233.897 12.4878L236.827 12.4878C238.056 12.4878 239.061 13.4393 239.061 14.621C239.061 15.5341 238.435 16.2785 237.546 16.6238L238.953 19.1406C239.023 19.2711 238.953 19.4246 238.775 19.4246L237.701 19.4246C237.608 19.4246 237.554 19.3785 237.538 19.3325L236.178 16.7082L235.034 16.7082L235.034 19.2404C235.034 19.3402 234.941 19.4322 234.84 19.4322L233.897 19.4322C233.789 19.4322 233.704 19.3402 233.704 19.2404L233.704 12.6796ZM236.719 15.6492C237.26 15.6492 237.732 15.1965 237.732 14.6364C237.732 14.1146 237.26 13.6772 236.719 13.6772L235.049 13.6772L235.049 15.6492L236.719 15.6492Z" fill="white"/>
<path d="M246.684 12.6796C246.684 12.5799 246.769 12.4878 246.877 12.4878L251.052 12.4878C251.168 12.4878 251.245 12.5799 251.245 12.6796L251.245 13.493C251.245 13.5928 251.16 13.6848 251.052 13.6848L248.014 13.6848L248.014 15.3116L250.55 15.3116C250.65 15.3116 250.743 15.4037 250.743 15.5034L250.743 16.3245C250.743 16.4319 250.65 16.5163 250.55 16.5163L248.014 16.5163L248.014 18.2505L251.052 18.2505C251.168 18.2505 251.245 18.3426 251.245 18.4424L251.245 19.2557C251.245 19.3555 251.16 19.4476 251.052 19.4476L246.877 19.4476C246.761 19.4476 246.684 19.3555 246.684 19.2557L246.684 12.6796Z" fill="white"/>
<path d="M257.934 19.171L261.119 12.4951C261.15 12.4337 261.204 12.3877 261.297 12.3877L261.397 12.3877C261.498 12.3877 261.544 12.4337 261.575 12.4951L264.737 19.171C264.799 19.3014 264.714 19.4319 264.559 19.4319L263.67 19.4319C263.515 19.4319 263.446 19.3705 263.376 19.2324L262.874 18.1581L259.804 18.1581L259.302 19.2324C259.263 19.3321 259.171 19.4319 259.008 19.4319L258.119 19.4319C257.957 19.4319 257.872 19.3014 257.934 19.171ZM262.363 17.0608L261.335 14.8816L261.304 14.8816L260.299 17.0608L262.363 17.0608Z" fill="white"/>
<path d="M271.818 12.6796C271.818 12.5799 271.903 12.4878 272.011 12.4878L272.954 12.4878C273.055 12.4878 273.148 12.5799 273.148 12.6796L273.148 18.2429L275.761 18.2429C275.877 18.2429 275.954 18.3349 275.954 18.4347L275.954 19.2481C275.954 19.3478 275.869 19.4399 275.761 19.4399L272.011 19.4399C271.895 19.4399 271.818 19.3478 271.818 19.2481L271.818 12.6796Z" fill="white"/>
<path d="M291.57 12.6796C291.57 12.5799 291.655 12.4878 291.764 12.4878L295.938 12.4878C296.054 12.4878 296.132 12.5799 296.132 12.6796L296.132 13.493C296.132 13.5928 296.047 13.6848 295.938 13.6848L292.9 13.6848L292.9 15.3116L295.436 15.3116C295.536 15.3116 295.629 15.4037 295.629 15.5034L295.629 16.3245C295.629 16.4319 295.536 16.5163 295.436 16.5163L292.9 16.5163L292.9 18.2505L295.938 18.2505C296.054 18.2505 296.132 18.3426 296.132 18.4424L296.132 19.2557C296.132 19.3555 296.047 19.4476 295.938 19.4476L291.764 19.4476C291.648 19.4476 291.57 19.3555 291.57 19.2557L291.57 12.6796Z" fill="white"/>
<path d="M303.337 18.4574L303.708 17.8435C303.793 17.7054 303.963 17.7054 304.056 17.7744C304.11 17.8051 304.937 18.3883 305.602 18.3883C306.135 18.3883 306.537 18.0507 306.537 17.621C306.537 17.1145 306.097 16.7692 305.238 16.4316C304.272 16.0556 303.313 15.4571 303.313 14.2907C303.313 13.4083 303.994 12.3877 305.617 12.3877C306.661 12.3877 307.465 12.9018 307.666 13.0553C307.766 13.1167 307.797 13.2855 307.728 13.3852L307.341 13.9531C307.256 14.0682 307.102 14.1526 306.986 14.0682C306.901 14.0221 306.127 13.5234 305.563 13.5234C304.976 13.5234 304.659 13.8994 304.659 14.214C304.659 14.682 305.037 14.9967 305.872 15.3266C306.87 15.7103 308.014 16.2858 308.014 17.5672C308.014 18.5878 307.102 19.5316 305.656 19.5316C304.365 19.5316 303.607 18.9485 303.398 18.7566C303.29 18.6646 303.244 18.6185 303.337 18.4574Z" fill="white"/>
<path d="M316.433 13.6765L314.864 13.6765C314.748 13.6765 314.67 13.5845 314.67 13.4847L314.67 12.6713C314.67 12.5716 314.755 12.4795 314.864 12.4795L319.348 12.4795C319.464 12.4795 319.541 12.5716 319.541 12.6713L319.541 13.4847C319.541 13.5845 319.456 13.6765 319.348 13.6765L317.778 13.6765L317.778 19.2398C317.778 19.3395 317.685 19.4316 317.585 19.4316L316.634 19.4316C316.534 19.4316 316.441 19.3395 316.441 19.2398L316.441 13.6765L316.433 13.6765Z" fill="white"/>
<path d="M325.431 19.171L328.617 12.4951C328.647 12.4337 328.702 12.3877 328.794 12.3877L328.895 12.3877C328.995 12.3877 329.042 12.4337 329.073 12.4951L332.235 19.171C332.296 19.3014 332.211 19.4319 332.057 19.4319L331.168 19.4319C331.013 19.4319 330.944 19.3705 330.874 19.2324L330.371 18.1581L327.302 18.1581L326.8 19.2324C326.761 19.3321 326.668 19.4319 326.506 19.4319L325.617 19.4319C325.455 19.4319 325.37 19.3014 325.431 19.171ZM329.861 17.0608L328.833 14.8816L328.802 14.8816L327.797 17.0608L329.861 17.0608Z" fill="white"/>
<path d="M339.904 13.6765L338.335 13.6765C338.219 13.6765 338.141 13.5845 338.141 13.4847L338.141 12.6713C338.141 12.5716 338.226 12.4795 338.335 12.4795L342.819 12.4795C342.935 12.4795 343.012 12.5716 343.012 12.6713L343.012 13.4847C343.012 13.5845 342.927 13.6765 342.819 13.6765L341.249 13.6765L341.249 19.2398C341.249 19.3395 341.156 19.4316 341.056 19.4316L340.105 19.4316C340.005 19.4316 339.912 19.3395 339.912 19.2398L339.912 13.6765L339.904 13.6765Z" fill="white"/>
<path d="M350.233 12.6796C350.233 12.5799 350.318 12.4878 350.426 12.4878L354.601 12.4878C354.717 12.4878 354.794 12.5799 354.794 12.6796L354.794 13.493C354.794 13.5928 354.709 13.6848 354.601 13.6848L351.563 13.6848L351.563 15.3116L354.098 15.3116C354.199 15.3116 354.292 15.4037 354.292 15.5034L354.292 16.3245C354.292 16.4319 354.199 16.5163 354.098 16.5163L351.563 16.5163L351.563 18.2505L354.601 18.2505C354.717 18.2505 354.794 18.3426 354.794 18.4424L354.794 19.2557C354.794 19.3555 354.709 19.4476 354.601 19.4476L350.426 19.4476C350.31 19.4476 350.233 19.3555 350.233 19.2557L350.233 12.6796Z" fill="white"/>
<path d="M370.828 12.6796C370.828 12.5799 370.913 12.4878 371.021 12.4878L373.433 12.4878C374.693 12.4878 375.729 13.4777 375.729 14.6824C375.729 15.9101 374.693 16.9154 373.441 16.9154L372.158 16.9154L372.158 19.2481C372.158 19.3478 372.065 19.4399 371.964 19.4399L371.021 19.4399C370.905 19.4399 370.828 19.3478 370.828 19.2481L370.828 12.6796ZM373.356 15.703C373.928 15.703 374.415 15.2579 374.415 14.6747C374.415 14.1299 373.936 13.7155 373.356 13.7155L372.165 13.7155L372.165 15.7106L373.356 15.7106L373.356 15.703Z" fill="white"/>
<path d="M381.721 19.171L384.906 12.4951C384.937 12.4337 384.991 12.3877 385.084 12.3877L385.184 12.3877C385.285 12.3877 385.331 12.4337 385.362 12.4951L388.524 19.171C388.586 19.3014 388.501 19.4319 388.346 19.4319L387.457 19.4319C387.302 19.4319 387.233 19.3705 387.163 19.2324L386.661 18.1581L383.592 18.1581L383.089 19.2324C383.05 19.3321 382.958 19.4319 382.795 19.4319L381.906 19.4319C381.744 19.4319 381.659 19.3014 381.721 19.171ZM386.151 17.0608L385.122 14.8816L385.091 14.8816L384.086 17.0608L386.151 17.0608Z" fill="white"/>
<path d="M395.605 12.6796C395.605 12.5799 395.69 12.4878 395.798 12.4878L398.729 12.4878C399.958 12.4878 400.963 13.4393 400.963 14.621C400.963 15.5341 400.337 16.2785 399.448 16.6238L400.855 19.1406C400.924 19.2711 400.855 19.4246 400.677 19.4246L399.602 19.4246C399.509 19.4246 399.455 19.3785 399.44 19.3325L398.079 16.7082L396.943 16.7082L396.943 19.2404C396.943 19.3402 396.85 19.4322 396.749 19.4322L395.806 19.4322C395.69 19.4322 395.613 19.3402 395.613 19.2404L395.613 12.6796L395.605 12.6796ZM398.62 15.6492C399.161 15.6492 399.633 15.1965 399.633 14.6364C399.633 14.1146 399.161 13.6772 398.62 13.6772L396.95 13.6772L396.95 15.6492L398.62 15.6492Z" fill="white"/>
<path d="M409.552 13.6765L407.982 13.6765C407.866 13.6765 407.789 13.5845 407.789 13.4847L407.789 12.6713C407.789 12.5716 407.874 12.4795 407.982 12.4795L412.466 12.4795C412.582 12.4795 412.66 12.5716 412.66 12.6713L412.66 13.4847C412.66 13.5845 412.575 13.6765 412.466 13.6765L410.897 13.6765L410.897 19.2398C410.897 19.3395 410.804 19.4316 410.704 19.4316L409.753 19.4316C409.652 19.4316 409.559 19.3395 409.559 19.2398L409.559 13.6765L409.552 13.6765Z" fill="white"/>
<path d="M419.881 12.5642C419.881 12.4644 419.974 12.3877 420.074 12.3877L420.329 12.3877L424.597 16.7692L424.604 16.7692L424.604 12.6716C424.604 12.5719 424.689 12.4798 424.798 12.4798L425.741 12.4798C425.841 12.4798 425.934 12.5719 425.934 12.6716L425.934 19.3475C425.934 19.4472 425.841 19.524 425.741 19.524L425.494 19.524L421.211 14.9736L421.203 14.9736L421.203 19.2401C421.203 19.3398 421.118 19.4319 421.01 19.4319L420.074 19.4319C419.974 19.4319 419.881 19.3398 419.881 19.2401L419.881 12.5642Z" fill="white"/>
<path d="M433.958 12.6796C433.958 12.5799 434.044 12.4878 434.152 12.4878L438.326 12.4878C438.442 12.4878 438.52 12.5799 438.52 12.6796L438.52 13.493C438.52 13.5928 438.435 13.6848 438.326 13.6848L435.288 13.6848L435.288 15.3116L437.824 15.3116C437.924 15.3116 438.017 15.4037 438.017 15.5034L438.017 16.3245C438.017 16.4319 437.924 16.5163 437.824 16.5163L435.288 16.5163L435.288 18.2505L438.326 18.2505C438.442 18.2505 438.52 18.3426 438.52 18.4424L438.52 19.2557C438.52 19.3555 438.435 19.4476 438.326 19.4476L434.152 19.4476C434.036 19.4476 433.958 19.3555 433.958 19.2557L433.958 12.6796Z" fill="white"/>
<path d="M446.143 12.6796C446.143 12.5799 446.228 12.4878 446.336 12.4878L449.266 12.4878C450.495 12.4878 451.5 13.4393 451.5 14.621C451.5 15.5341 450.874 16.2785 449.985 16.6238L451.392 19.1406C451.461 19.2711 451.392 19.4246 451.214 19.4246L450.139 19.4246C450.047 19.4246 449.993 19.3785 449.977 19.3325L448.616 16.7082L447.48 16.7082L447.48 19.2404C447.48 19.3402 447.387 19.4322 447.287 19.4322L446.344 19.4322C446.228 19.4322 446.15 19.3402 446.15 19.2404L446.15 12.6796L446.143 12.6796ZM449.158 15.6492C449.699 15.6492 450.17 15.1965 450.17 14.6364C450.17 14.1146 449.699 13.6772 449.158 13.6772L447.488 13.6772L447.488 15.6492L449.158 15.6492Z" fill="white"/>
<line x1="202.915" y1="28.4094" x2="202.915" y2="3.16302" stroke="url(#paint0_linear_1149_45062)" stroke-width="0.5"/>
<defs>
<linearGradient id="paint0_linear_1149_45062" x1="203.165" y1="3.16302" x2="203.165" y2="28.4094" gradientUnits="userSpaceOnUse">
<stop offset="0.0104167" stop-color="white" stop-opacity="0"/>
<stop offset="0.494792" stop-color="white"/>
<stop offset="1" stop-color="white" stop-opacity="0"/>
</linearGradient>
</defs>
</svg>
