<svg width="15" height="16" viewBox="0 0 15 16" fill="none" xmlns="http://www.w3.org/2000/svg">
<path d="M0 15.5V3.9375H3.4375V0.5H11.5625V7.375H15V15.5H8.60417V12.0625H6.39583V15.5H0ZM1.25 14.25H3.4375V12.0625H1.25V14.25ZM1.25 10.8125H3.4375V8.625H1.25V10.8125ZM1.25 7.375H3.4375V5.1875H1.25V7.375ZM4.6875 10.8125H6.875V8.625H4.6875V10.8125ZM4.6875 7.375H6.875V5.1875H4.6875V7.375ZM4.6875 3.9375H6.875V1.75H4.6875V3.9375ZM8.125 10.8125H10.3125V8.625H8.125V10.8125ZM8.125 7.375H10.3125V5.1875H8.125V7.375ZM8.125 3.9375H10.3125V1.75H8.125V3.9375ZM11.5625 14.25H13.75V12.0625H11.5625V14.25ZM11.5625 10.8125H13.75V8.625H11.5625V10.8125Z" fill="#F1F1F1"/>
</svg>
