<svg width="104" height="104" viewBox="0 0 104 104" fill="none" xmlns="http://www.w3.org/2000/svg">
<path d="M51.7021 77.6667C53.2042 77.6667 54.4738 77.1481 55.5109 76.1109C56.5481 75.0738 57.0667 73.8042 57.0667 72.3021C57.0667 70.8 56.5481 69.5304 55.5109 68.4932C54.4738 67.4561 53.2042 66.9375 51.7021 66.9375C50.2 66.9375 48.9304 67.4561 47.8932 68.4932C46.8561 69.5304 46.3375 70.8 46.3375 72.3021C46.3375 73.8042 46.8561 75.0738 47.8932 76.1109C48.9304 77.1481 50.2 77.6667 51.7021 77.6667ZM47.8396 61.1437H55.7792C55.7792 58.7833 56.0474 56.9236 56.5839 55.5646C57.1203 54.2056 58.6403 52.3458 61.1437 49.9854C63.0035 48.1257 64.4698 46.3554 65.5427 44.6745C66.6156 42.9936 67.1521 40.9729 67.1521 38.6125C67.1521 34.6069 65.6858 31.5312 62.7531 29.3854C59.8205 27.2396 56.3514 26.1667 52.3458 26.1667C48.2687 26.1667 44.9606 27.2396 42.4214 29.3854C39.8821 31.5312 38.1118 34.1063 37.1104 37.1104L44.1917 39.9C44.5493 38.6125 45.354 37.2177 46.6057 35.7156C47.8575 34.2135 49.7708 33.4625 52.3458 33.4625C54.6347 33.4625 56.3514 34.0884 57.4958 35.3401C58.6403 36.5918 59.2125 37.9688 59.2125 39.4708C59.2125 40.9014 58.7833 42.2425 57.925 43.4943C57.0667 44.746 55.9938 45.9083 54.7062 46.9813C51.559 49.7708 49.6278 51.8809 48.9125 53.3115C48.1972 54.742 47.8396 57.3528 47.8396 61.1437ZM51.9167 94.8333C45.9799 94.8333 40.4007 93.7068 35.1792 91.4536C29.9576 89.2005 25.4156 86.1427 21.5531 82.2802C17.6906 78.4177 14.6328 73.8757 12.3797 68.6542C10.1266 63.4326 9 57.8535 9 51.9167C9 45.9799 10.1266 40.4007 12.3797 35.1792C14.6328 29.9576 17.6906 25.4156 21.5531 21.5531C25.4156 17.6906 29.9576 14.6328 35.1792 12.3797C40.4007 10.1266 45.9799 9 51.9167 9C57.8535 9 63.4326 10.1266 68.6542 12.3797C73.8757 14.6328 78.4177 17.6906 82.2802 21.5531C86.1427 25.4156 89.2005 29.9576 91.4536 35.1792C93.7068 40.4007 94.8333 45.9799 94.8333 51.9167C94.8333 57.8535 93.7068 63.4326 91.4536 68.6542C89.2005 73.8757 86.1427 78.4177 82.2802 82.2802C78.4177 86.1427 73.8757 89.2005 68.6542 91.4536C63.4326 93.7068 57.8535 94.8333 51.9167 94.8333ZM51.9167 86.25C61.5014 86.25 69.6198 82.924 76.2719 76.2719C82.924 69.6198 86.25 61.5014 86.25 51.9167C86.25 42.3319 82.924 34.2135 76.2719 27.5615C69.6198 20.9094 61.5014 17.5833 51.9167 17.5833C42.3319 17.5833 34.2135 20.9094 27.5615 27.5615C20.9094 34.2135 17.5833 42.3319 17.5833 51.9167C17.5833 61.5014 20.9094 69.6198 27.5615 76.2719C34.2135 82.924 42.3319 86.25 51.9167 86.25Z" fill="#5F6368"/>
</svg>
