<svg width="18" height="19" viewBox="0 0 18 19" fill="none" xmlns="http://www.w3.org/2000/svg">
<path d="M0 18.5409L1.27142 13.898C0.487156 12.5391 0.0746368 10.9977 0.0752131 9.41853C0.0772303 4.47826 4.09753 0.458984 9.03768 0.458984C11.435 0.459993 13.6852 1.39309 15.3773 3.08668C17.0693 4.78026 18.0009 7.03146 18 9.42574C17.9978 14.3659 13.977 18.3857 9.03768 18.3857C9.03739 18.3857 9.03782 18.3857 9.03768 18.3857H9.03379C7.53385 18.3851 6.06013 18.0089 4.75111 17.295L0 18.5409ZM4.97113 15.673L5.24331 15.8342C6.38678 16.5129 7.69782 16.8718 9.0348 16.8725H9.03768C13.1433 16.8725 16.4849 13.5315 16.4867 9.42516C16.4874 7.43519 15.7133 5.56395 14.3069 4.15637C12.9003 2.7488 11.0302 1.97318 9.04042 1.97232C4.9315 1.97232 1.58999 5.31295 1.58841 9.41911C1.58783 10.8263 1.98148 12.1965 2.72727 13.3823L2.90449 13.6642L2.15179 16.4122L4.97113 15.673Z" fill="#111C20"/>
<path fill-rule="evenodd" clip-rule="evenodd" d="M6.79732 5.67285C6.6296 5.29995 6.45295 5.29246 6.29331 5.28597C6.16276 5.28035 6.01335 5.28064 5.86422 5.28064C5.71494 5.28064 5.4723 5.33684 5.26713 5.56089C5.0618 5.78495 4.48315 6.32671 4.48315 7.42855C4.48315 8.53052 5.28571 9.59518 5.39767 9.74475C5.50962 9.89416 6.94688 12.2275 9.223 13.1252C11.1147 13.8713 11.4996 13.7228 11.9102 13.6855C12.3209 13.6482 13.2351 13.1438 13.4217 12.6209C13.6084 12.098 13.6084 11.6499 13.5524 11.5561C13.4963 11.4628 13.347 11.4068 13.1231 11.2948C12.8992 11.1829 11.7983 10.641 11.5929 10.5663C11.3876 10.4915 11.2383 10.4544 11.0891 10.6786C10.9396 10.9025 10.5108 11.4068 10.3802 11.5561C10.2495 11.7058 10.1188 11.7245 9.89488 11.6124C9.67097 11.5002 8.94967 11.2639 8.09409 10.5009C7.42841 9.90742 6.97887 9.1743 6.84818 8.95011C6.71764 8.72619 6.84602 8.61554 6.94659 8.49321C7.12771 8.2729 7.43158 7.8768 7.50622 7.72753C7.58086 7.57797 7.54354 7.44728 7.48763 7.33518C7.43158 7.22322 6.9963 6.11577 6.79732 5.67285Z" fill="#111C20"/>
</svg>
