<svg width="62" height="62" viewBox="0 0 62 62" fill="none" xmlns="http://www.w3.org/2000/svg">
<path d="M31.0001 61.8334C26.7348 61.8334 22.7265 61.024 18.9751 59.4053C15.2237 57.7865 11.9605 55.5896 9.1855 52.8146C6.4105 50.0396 4.21362 46.7764 2.59487 43.0251C0.976123 39.2737 0.166748 35.2653 0.166748 31.0001C0.166748 26.7348 0.976123 22.7264 2.59487 18.9751C4.21362 15.2237 6.4105 11.9605 9.1855 9.18547C11.9605 6.41047 15.2237 4.21359 18.9751 2.59484C22.7265 0.976093 26.7348 0.166718 31.0001 0.166718C35.2654 0.166718 39.2737 0.976093 43.0251 2.59484C46.7765 4.21359 50.0397 6.41047 52.8147 9.18547C55.5897 11.9605 57.7865 15.2237 59.4053 18.9751C61.024 22.7264 61.8334 26.7348 61.8334 31.0001C61.8334 35.2653 61.024 39.2737 59.4053 43.0251C57.7865 46.7764 55.5897 50.0396 52.8147 52.8146C50.0397 55.5896 46.7765 57.7865 43.0251 59.4053C39.2737 61.024 35.2654 61.8334 31.0001 61.8334ZM27.9167 55.5126V49.5001C26.2209 49.5001 24.7692 48.8962 23.5615 47.6886C22.3539 46.481 21.7501 45.0292 21.7501 43.3334V40.25L6.95008 25.4501C6.79591 26.3751 6.6546 27.3001 6.52612 28.2251C6.39765 29.1501 6.33342 30.0751 6.33342 31.0001C6.33342 37.2181 8.37612 42.6653 12.4615 47.3417C16.547 52.0181 21.6987 54.7417 27.9167 55.5126ZM49.1917 47.6501C50.2195 46.5195 51.1445 45.299 51.9667 43.9886C52.789 42.6782 53.4699 41.3164 54.0095 39.9032C54.549 38.49 54.9602 37.0382 55.2428 35.548C55.5254 34.0577 55.6667 32.5417 55.6667 31.0001C55.6667 25.9639 54.2664 21.3646 51.4657 17.2021C48.665 13.0396 44.9265 10.0334 40.2501 8.18338V9.41672C40.2501 11.1126 39.6463 12.5643 38.4386 13.7719C37.231 14.9796 35.7792 15.5834 34.0834 15.5834H27.9167V21.7501C27.9167 22.6237 27.6213 23.356 27.0303 23.9469C26.4393 24.5379 25.707 24.8334 24.8334 24.8334H18.6667V31.0001H37.1667C38.0404 31.0001 38.7727 31.2955 39.3636 31.8865C39.9546 32.4775 40.2501 33.2098 40.2501 34.0834V43.3334H43.3334C44.6695 43.3334 45.8772 43.7316 46.9563 44.5282C48.0355 45.3247 48.7806 46.3653 49.1917 47.6501Z" fill="#FFD966"/>
</svg>
