<svg width="26" height="25" viewBox="0 0 26 25" fill="none" xmlns="http://www.w3.org/2000/svg">
<path d="M15.0042 12.2913L12.1967 10.9813C11.9517 10.8675 11.7505 10.995 11.7505 11.2662V13.7338C11.7505 14.005 11.9517 14.1325 12.1967 14.0188L15.003 12.7087C15.2492 12.5938 15.2492 12.4063 15.0042 12.2913ZM13.0005 0.5C6.37299 0.5 1.00049 5.8725 1.00049 12.5C1.00049 19.1275 6.37299 24.5 13.0005 24.5C19.628 24.5 25.0005 19.1275 25.0005 12.5C25.0005 5.8725 19.628 0.5 13.0005 0.5ZM13.0005 17.375C6.85799 17.375 6.75049 16.8213 6.75049 12.5C6.75049 8.17875 6.85799 7.625 13.0005 7.625C19.143 7.625 19.2505 8.17875 19.2505 12.5C19.2505 16.8213 19.143 17.375 13.0005 17.375Z" fill="#8B8E98"/>
</svg>
