<svg width="141" height="101" viewBox="0 0 141 101" fill="none" xmlns="http://www.w3.org/2000/svg">
<rect x="0.5" y="0.5" width="140" height="100" rx="12" fill="#52545B"/>
<path d="M116.359 9.53445H29.6411V91.4995H116.359V9.53445Z" fill="#52545B"/>
<path d="M43.6125 65.7337C40.1849 65.7337 38.2095 62.0951 38.2095 55.7381C38.2095 49.3812 40.1765 45.7426 43.6125 45.7426C46.2042 45.7426 47.8251 47.6252 48.6018 51.4917L48.6356 51.6521L46.888 52.1418L46.8543 51.9561C46.2464 49.1786 45.2418 47.8869 43.6969 47.8869C42.3377 47.8869 40.0583 48.9084 40.0583 55.7297C40.0583 62.551 42.3377 63.5725 43.6969 63.5725C45.9256 63.5725 46.7192 61.4788 46.7192 59.5118V58.0766H43.6969V55.9239H48.5511V65.4635H46.9725V64.1128C46.238 65.1512 45.0476 65.7252 43.6125 65.7252" fill="#CE782E"/>
<path d="M59.2809 65.4728H51.1089V46.0136H52.9493V63.3201H59.2809V65.4728Z" fill="#CE782E"/>
<path d="M65.1818 65.7337C61.7458 65.7337 59.7788 62.0951 59.7788 55.7381C59.7788 49.3812 61.7458 45.7426 65.1818 45.7426C68.6178 45.7426 70.5848 49.3812 70.5848 55.7381C70.5848 62.0951 68.6178 65.7337 65.1818 65.7337ZM65.1818 47.8954C62.8518 47.8954 61.6192 50.6053 61.6192 55.7381C61.6192 60.871 62.8518 63.5809 65.1818 63.5809C67.5118 63.5809 68.7444 60.871 68.7444 55.7381C68.7444 50.6053 67.5118 47.8954 65.1818 47.8954Z" fill="#CE782E"/>
<path d="M76.943 65.4728H72.6206V46.0136H77.7281C80.0328 46.0136 81.6453 48.0228 81.6453 50.9016C81.6453 53.0375 80.9615 54.4811 79.5685 55.3C81.0206 55.9923 81.9745 57.9002 81.9745 60.1627C81.9745 63.6324 80.2354 65.4728 76.943 65.4728ZM74.4526 63.3201H77.0527C79.1802 63.3201 80.1341 62.3155 80.1341 60.0529C80.1341 57.7904 78.9016 56.3637 76.8333 56.3637H74.4526V63.3116V63.3201ZM74.4526 54.2194H76.867C79.0367 54.2194 79.7965 52.6323 79.7965 51.138C79.7965 49.1119 79.0535 48.1664 77.458 48.1664H74.4526V54.2194Z" fill="#CE782E"/>
<path d="M93.6751 65.4728H91.7588L90.4924 59.4873H85.9843L84.7264 65.4728H82.8101L86.9974 46.0136H89.4878L93.6751 65.4728ZM86.4233 57.3346H90.045L88.2384 48.0735L86.4233 57.3346Z" fill="#CE782E"/>
<path d="M103.316 65.4728H95.1436V46.0136H96.9755V63.3201H103.316V65.4728Z" fill="#CE782E"/>
<path d="M42.4989 84.9658C39.7805 84.9658 38.6746 82.5176 38.0076 80.3901L37.9316 80.1284L39.7045 79.2251L39.8058 79.605C40.363 81.6902 41.2916 82.7539 42.5664 82.7539C43.9847 82.7539 44.8205 81.7409 44.8205 80.0609C44.8205 78.2374 43.495 77.5367 41.9586 76.7178C40.2195 75.7891 38.2356 74.7423 38.2356 71.7707C38.2356 69.0861 39.848 67.1443 42.0683 67.1443C44.1282 67.1443 45.614 68.6977 46.2387 71.5174L46.3063 71.796L44.5165 72.3616L44.449 71.9986C44.1535 70.3355 43.2502 69.3478 42.0345 69.3478C40.4305 69.3478 40.1688 70.7745 40.1688 71.6271C40.1519 73.0876 41.3845 73.7461 42.8112 74.5059C44.6516 75.4852 46.7453 76.5996 46.7453 79.7316C46.7453 82.8637 45.1497 84.9658 42.482 84.9658" fill="white"/>
<path d="M52.8821 84.7285H50.9488V69.5916H47.4453V67.3798H56.3856V69.5916H52.8821V84.7285Z" fill="white"/>
<path d="M61.8231 84.9658C58.7164 84.9658 56.9351 81.7155 56.9351 76.0593C56.9351 70.403 58.7164 67.1443 61.8231 67.1443C64.9298 67.1443 66.7111 70.3861 66.7111 76.0593C66.7111 81.7324 64.9298 84.9658 61.8231 84.9658ZM61.8231 69.3562C59.3833 69.3562 58.8683 73.0032 58.8683 76.0508C58.8683 79.0985 59.3833 82.7455 61.8231 82.7455C64.2629 82.7455 64.7778 79.0985 64.7778 76.0508C64.7778 73.0032 64.2629 69.3562 61.8231 69.3562Z" fill="white"/>
<path d="M76.8408 72.099C76.8408 74.7498 75.6589 76.0077 74.5698 76.6155L77.1025 84.7369H75.0173L72.6535 77.1474H70.467V84.7369H68.5337V67.3798H72.6113C75.2959 67.3798 76.8408 69.102 76.8408 72.099ZM70.467 74.9271H72.5015C74.1393 74.9271 74.9075 74.0576 74.9075 72.1918C74.9075 70.3261 74.2068 69.5916 72.4931 69.5916H70.4754V74.9271H70.467Z" fill="white"/>
<path d="M87.9602 84.7284H85.9425L84.8366 79.4943H81.1558L80.0499 84.7284H78.0322L81.7721 67.3713H84.2119L87.9518 84.7284H87.9602ZM81.6117 77.2824H84.3892L83.0047 70.191L81.6117 77.2824Z" fill="white"/>
<path d="M93.3042 84.9658C90.1975 84.9658 88.4077 81.7155 88.4077 76.0508C88.4077 70.3861 90.189 67.1443 93.3042 67.1443C95.6173 67.1443 97.1369 68.8834 97.8292 72.311L97.8883 72.598L96.0479 73.113L95.9719 72.7837C95.305 69.7445 94.2328 69.3562 93.3633 69.3562C91.4131 69.3562 90.341 71.7369 90.341 76.0508C90.341 80.3648 91.4131 82.7455 93.3633 82.7455C95.6764 82.7455 95.8453 80.1453 95.8453 79.3602V78.2627H93.2029V76.0508H97.7785V84.721H96.0732V83.8345C95.3978 84.5521 94.427 84.9573 93.2957 84.9573" fill="white"/>
<path d="M108.171 84.7285H100.193V67.3798H107.85V69.5916H102.126V74.5556H106.204V76.7675H102.126V82.5166H108.171V84.7285Z" fill="white"/>
<path d="M107.318 9.50058H102.286V45.5824H107.318V9.50058Z" fill="#D0782F"/>
<path d="M100.926 9.53445H99.3052V45.6163H100.926V9.53445Z" fill="white"/>
</svg>
